<svg xmlns="http://www.w3.org/2000/svg" viewBox="0 0 28.33 28.33"><defs><style>.a{fill:#df306c;}</style></defs><title>Fichier 1</title><path class="a" d="M26.12,28.33H2.22A2.22,2.22,0,0,1,0,26.12V4.87A2.22,2.22,0,0,1,2.22,2.66h23.9a2.22,2.22,0,0,1,2.22,2.22V26.12A2.22,2.22,0,0,1,26.12,28.33ZM2.22,4.43a.45.45,0,0,0-.45.45V26.12a.45.45,0,0,0,.45.45h23.9a.45.45,0,0,0,.45-.45V4.87a.45.45,0,0,0-.45-.45Z"/><path class="a" d="M27.45,10.63H.89a.89.89,0,1,1,0-1.77H27.45a.89.89,0,0,1,0,1.77Z"/><path class="a" d="M5.31,7.08a.89.89,0,0,1-.89-.89V.89A.89.89,0,0,1,6.2.89V6.2A.89.89,0,0,1,5.31,7.08Z"/><path class="a" d="M23,7.08a.89.89,0,0,1-.89-.89V.89a.89.89,0,1,1,1.77,0V6.2A.89.89,0,0,1,23,7.08Z"/><path class="a" d="M14.21,22.48a1,1,0,0,1-1-1V16a1,1,0,0,1,2,0v5.53a1,1,0,0,1-1,1Z"/><path class="a" d="M17,19.72H11.44a1,1,0,0,1,0-2H17a1,1,0,0,1,0,2Z"/></svg>