<?xml version="1.0" encoding="utf-8"?>
<!-- Generator: Adobe Illustrator 16.0.0, SVG Export Plug-In . SVG Version: 6.00 Build 0)  -->
<!DOCTYPE svg PUBLIC "-//W3C//DTD SVG 1.1//EN" "http://www.w3.org/Graphics/SVG/1.1/DTD/svg11.dtd">
<svg version="1.1" id="Layer_3" xmlns="http://www.w3.org/2000/svg" xmlns:xlink="http://www.w3.org/1999/xlink" x="0px" y="0px"
	 width="25.301px" height="20.926px" viewBox="0 0 25.301 20.926" enable-background="new 0 0 25.301 20.926" xml:space="preserve">
<g>
	<g>
		<path fill="#DF306C" d="M19.095,20.926c-3.425,0-6.209-2.785-6.209-6.208S15.67,8.51,19.095,8.51c3.422,0,6.206,2.785,6.206,6.208
			S22.517,20.926,19.095,20.926L19.095,20.926z M19.095,9.51c-2.873,0-5.209,2.336-5.209,5.208s2.336,5.208,5.209,5.208
			c2.87,0,5.206-2.336,5.206-5.208S21.965,9.51,19.095,9.51L19.095,9.51z"/>
	</g>
	<g>
		<path fill="#DF306C" d="M11.979,20.495c-0.166,0-0.332-0.041-0.482-0.124c-0.045-0.024-0.087-0.053-0.127-0.083l-0.303-0.211
			c-0.742-0.517-2.48-1.726-3.635-2.616c-4.414-3.436-6.668-5.912-7.096-7.797C0.13,9.042,0.009,8.293,0.001,7.524
			c-0.027-2.044,0.744-4.02,2.117-5.417C3.37,0.834,5.013,0.129,6.742,0.122c1.935-0.027,3.714,0.768,5.009,2.164
			c1.256-1.426,3.027-2.259,4.957-2.284c1.752-0.041,3.385,0.627,4.668,1.868c1.406,1.359,2.228,3.313,2.254,5.358
			c0.009,0.77-0.094,1.521-0.305,2.235c-0.037,0.201-0.139,0.502-0.287,0.836l-1.824-0.821c0.086-0.191,0.146-0.357,0.173-0.494
			c0.176-0.608,0.25-1.163,0.243-1.73c-0.02-1.516-0.618-2.953-1.645-3.945c-0.896-0.867-2.018-1.341-3.244-1.306
			c-1.705,0.021-3.236,0.942-4.1,2.462c-0.176,0.308-0.502,0.5-0.856,0.505C11.412,5,11.101,4.791,10.917,4.487
			c-0.898-1.483-2.43-2.365-4.104-2.365c-0.02,0-0.037,0-0.055,0c-1.2,0.006-2.337,0.498-3.212,1.388
			C2.544,4.528,1.979,5.983,2.001,7.5c0.006,0.568,0.094,1.118,0.262,1.635c0.199,0.858,1.26,2.75,6.395,6.747
			c1.014,0.782,2.523,1.838,3.335,2.403c0.479-0.332,1.048-0.754,1.696-1.26l1.229,1.578c-0.98,0.765-1.769,1.332-2.4,1.735
			C12.353,20.443,12.165,20.495,11.979,20.495L11.979,20.495z"/>
	</g>
	<g>
		<path fill="#DF306C" d="M21.858,15.718h-5.527c-0.553,0-1-0.448-1-1s0.447-1,1-1h5.527c0.553,0,1,0.448,1,1
			S22.411,15.718,21.858,15.718L21.858,15.718z"/>
	</g>
</g>
</svg>
