<?xml version="1.0" encoding="utf-8"?>
<!-- Generator: Adobe Illustrator 15.1.0, SVG Export Plug-In . SVG Version: 6.00 Build 0)  -->
<!DOCTYPE svg PUBLIC "-//W3C//DTD SVG 1.1//EN" "http://www.w3.org/Graphics/SVG/1.1/DTD/svg11.dtd">
<svg version="1.1" id="Calque_1" xmlns="http://www.w3.org/2000/svg" xmlns:xlink="http://www.w3.org/1999/xlink" x="0px" y="0px"
	 width="18.332px" height="22.528px" viewBox="0 0 18.332 22.528" enable-background="new 0 0 18.332 22.528" xml:space="preserve">
<g>
	<defs>
		<rect id="SVGID_1_" y="0" width="18.332" height="22.528"/>
	</defs>
	<clipPath id="SVGID_2_">
		<use xlink:href="#SVGID_1_"  overflow="visible"/>
	</clipPath>
	<path clip-path="url(#SVGID_2_)" fill="#1A04C4" d="M11.332,22.028c-0.276,0-0.5-0.224-0.5-0.5v-6c0-0.276,0.224-0.5,0.5-0.5h6
		c0.276,0,0.5,0.224,0.5,0.5s-0.224,0.5-0.5,0.5h-5.5v5.5C11.832,21.805,11.608,22.028,11.332,22.028"/>
	<path clip-path="url(#SVGID_2_)" fill="#1A04C4" d="M11.332,22.528H1c-0.553,0-1-0.447-1-1V1c0-0.553,0.447-1,1-1h16.332
		c0.553,0,1,0.447,1,1v14.528c0,0.266-0.105,0.52-0.293,0.707l-6,6C11.852,22.423,11.598,22.528,11.332,22.528 M2,20.528h8.918
		l5.414-5.414V2H2V20.528z"/>
	<path clip-path="url(#SVGID_2_)" fill="#1A04C4" d="M9.167,13.485c-0.256,0-0.512-0.098-0.707-0.293l-2.941-2.939
		c-0.391-0.39-0.391-1.024,0-1.414c0.39-0.391,1.023-0.391,1.414,0l2.234,2.232L11.4,8.839c0.391-0.391,1.023-0.391,1.414,0
		c0.391,0.39,0.391,1.023,0,1.414l-2.94,2.939C9.679,13.388,9.423,13.485,9.167,13.485"/>
	<path clip-path="url(#SVGID_2_)" fill="#1A04C4" d="M9.167,12.687c-0.552,0-1-0.447-1-1L8.166,4.875c0-0.551,0.447-1,1-1
		c0.552,0,1,0.448,1,1l0.001,6.811C10.167,12.238,9.72,12.687,9.167,12.687"/>
</g>
</svg>
