<?xml version="1.0" encoding="utf-8"?>
<!-- Generator: Adobe Illustrator 15.1.0, SVG Export Plug-In . SVG Version: 6.00 Build 0)  -->
<!DOCTYPE svg PUBLIC "-//W3C//DTD SVG 1.1//EN" "http://www.w3.org/Graphics/SVG/1.1/DTD/svg11.dtd">
<svg version="1.1" id="Calque_1" xmlns="http://www.w3.org/2000/svg" xmlns:xlink="http://www.w3.org/1999/xlink" x="0px" y="0px"
	 width="54.5px" height="54.5px" viewBox="0 0 54.5 54.5" enable-background="new 0 0 54.5 54.5" xml:space="preserve">
<g>
	<defs>
		<rect id="SVGID_1_" width="54.5" height="54.5"/>
	</defs>
	<clipPath id="SVGID_2_">
		<use xlink:href="#SVGID_1_"  overflow="visible"/>
	</clipPath>
	<path clip-path="url(#SVGID_2_)" fill="#FFFFFF" d="M53,27.25C53,41.471,41.471,53,27.25,53C13.029,53,1.5,41.471,1.5,27.25
		C1.5,13.029,13.029,1.5,27.25,1.5C41.471,1.5,53,13.029,53,27.25"/>
	<g clip-path="url(#SVGID_2_)">
		<path fill="#1A04C4" d="M27.25,54.5C12.224,54.5,0,42.275,0,27.25C0,12.224,12.224,0,27.25,0C42.275,0,54.5,12.224,54.5,27.25
			C54.5,42.275,42.275,54.5,27.25,54.5z M27.25,3C13.878,3,3,13.878,3,27.25C3,40.621,13.878,51.5,27.25,51.5
			c13.371,0,24.25-10.879,24.25-24.25C51.5,13.878,40.621,3,27.25,3z"/>
	</g>
	<g clip-path="url(#SVGID_2_)">
		<rect x="5.917" y="11.25" fill="#1A04C4" width="42.667" height="3"/>
	</g>
	<g clip-path="url(#SVGID_2_)">
		<rect x="1.511" y="25.75" fill="#1A04C4" width="51.489" height="3"/>
	</g>
	<g clip-path="url(#SVGID_2_)">
		<rect x="5.917" y="40.25" fill="#1A04C4" width="42.667" height="3"/>
	</g>
	<g clip-path="url(#SVGID_2_)">
		<path fill="#1A04C4" d="M27.251,54.5c-8.791,0-15.677-11.97-15.677-27.25S18.46,0,27.251,0c8.79,0,15.675,11.97,15.675,27.25
			S36.041,54.5,27.251,54.5z M27.251,3c-6.872,0-12.677,11.105-12.677,24.25c0,13.145,5.806,24.25,12.677,24.25
			c6.87,0,12.675-11.105,12.675-24.25C39.926,14.105,34.121,3,27.251,3z"/>
	</g>
	<g clip-path="url(#SVGID_2_)">
		<rect x="25.75" y="1.5" fill="#1A04C4" width="3" height="51.5"/>
	</g>
</g>
</svg>
