<?xml version="1.0" encoding="utf-8"?>
<!-- Generator: Adobe Illustrator 16.0.0, SVG Export Plug-In . SVG Version: 6.00 Build 0)  -->
<!DOCTYPE svg PUBLIC "-//W3C//DTD SVG 1.1//EN" "http://www.w3.org/Graphics/SVG/1.1/DTD/svg11.dtd">
<svg version="1.1" id="Calque_1" xmlns="http://www.w3.org/2000/svg" xmlns:xlink="http://www.w3.org/1999/xlink" x="0px" y="0px"
	 width="38px" height="38px" viewBox="0 -6 38 38" enable-background="new 0 -6 38 38" xml:space="preserve">
<path fill="#FFFFFF" d="M34,0H4C1.794,0,0,1.794,0,4v18c0,2.206,1.794,4,4,4h30c2.206,0,4-1.794,4-4V4C38,1.794,36.206,0,34,0z
	 M36,22c0,1.104-0.896,2-2,2H4c-1.103,0-2-0.896-2-2V4c0-1.103,0.897-2,2-2h30c1.104,0,2,0.897,2,2V22z M34.894,1.88L19,12.73
	L2.654,1.124C2.22,0.784,1.591,0.857,1.25,1.292C0.91,1.726,0.984,2.355,1.418,2.696l16.964,12.089
	c0.04,0.029,0.086,0.046,0.13,0.07c0.035,0.02,0.067,0.041,0.104,0.057c0.125,0.053,0.253,0.087,0.384,0.087
	c0.13,0,0.26-0.035,0.383-0.086c0.037-0.017,0.068-0.037,0.104-0.058c0.042-0.023,0.09-0.039,0.13-0.069L36.129,3.452
	c0.435-0.342,0.51-0.97,0.168-1.405C35.957,1.612,35.326,1.537,34.894,1.88L34.894,1.88z"/>
</svg>
