<svg xmlns="http://www.w3.org/2000/svg" width="18.332" height="22.527" viewBox="0 0 18.332 22.527"><path fill="#E76946" d="M11.332 22.028c-.275 0-.5-.224-.5-.5v-6c0-.275.225-.5.5-.5h6c.275 0 .5.225.5.5 0 .276-.225.5-.5.5h-5.5v5.5c0 .277-.225.5-.5.5zM11.332 22.528H1c-.553 0-1-.446-1-1V1c0-.554.447-1 1-1h16.332c.553 0 1 .446 1 1v14.527c0 .267-.105.52-.293.707l-6 6c-.188.19-.442.294-.708.294zm-9.332-2h8.918l5.414-5.414V2H2v18.528zM9.167 13.485c-.256 0-.512-.098-.707-.293l-2.94-2.938c-.392-.39-.392-1.023 0-1.414.39-.392 1.022-.392 1.413 0l2.234 2.23L11.4 8.84c.39-.393 1.022-.393 1.414 0 .39.39.39 1.02 0 1.413l-2.94 2.938c-.194.198-.45.295-.707.295zM9.167 12.687c-.552 0-1-.447-1-1v-6.81c0-.554.446-1 1-1 .55 0 1 .445 1 1v6.81c0 .55-.446 1-1 1z"/></svg>