<?xml version="1.0" encoding="utf-8"?>
<!-- Generator: Adobe Illustrator 15.1.0, SVG Export Plug-In . SVG Version: 6.00 Build 0)  -->
<!DOCTYPE svg PUBLIC "-//W3C//DTD SVG 1.1//EN" "http://www.w3.org/Graphics/SVG/1.1/DTD/svg11.dtd">
<svg version="1.1" id="Calque_1" xmlns="http://www.w3.org/2000/svg" xmlns:xlink="http://www.w3.org/1999/xlink" x="0px" y="0px"
	 width="148.964px" height="111.475px" viewBox="0 0 148.964 111.475" enable-background="new 0 0 148.964 111.475"
	 xml:space="preserve">
<g>
	<defs>
		<rect id="SVGID_1_" width="148.964" height="111.475"/>
	</defs>
	<clipPath id="SVGID_2_">
		<use xlink:href="#SVGID_1_"  overflow="visible"/>
	</clipPath>
	<path clip-path="url(#SVGID_2_)" fill="#FFFFFF" d="M17.141,63.088l10.131,12.34c0.289-2.506,0.885-4.918,1.788-7.213
		l-8.479-10.322c-0.699-0.85-1.812-1.244-2.886-1.033c-5.936,1.184-10.478,3.395-13.508,6.57c-2.94,3.094-4.379,7.041-4.166,11.391
		l0.65,15.973c0.051,1.26,0.887,2.352,2.094,2.725c4.372,1.352,12.208,2.95,24.983,3.104l-0.242-5.957
		c-10.087-0.139-16.766-1.207-20.974-2.275l-0.56-13.832c-0.135-2.789,0.692-5.084,2.532-7.02
		C10.396,65.553,13.296,64.059,17.141,63.088 M45.376,43.63c2.377-9.887,0.447-17.315-5.443-20.911
		c-3.504-2.14-9.069-2.246-10.153-2.246c-1.077,0-6.646,0.106-10.143,2.246c-5.89,3.596-7.824,11.022-5.446,20.907
		c1.756,7.316,6.511,12.304,12.723,13.353c0.054,0.01,0.109,0.016,0.167,0.023c0.586,0.064,2.02,0.216,2.699,0.216
		c0.682,0,2.12-0.151,2.706-0.216c0.055-0.008,0.109-0.014,0.167-0.023C38.855,55.93,43.617,50.942,45.376,43.63 M39.583,42.237
		c-1.171,4.883-4.102,8.186-7.844,8.856c-0.826,0.089-1.724,0.167-1.959,0.169c-0.229-0.002-1.126-0.08-1.952-0.169
		c-3.745-0.67-6.669-3.973-7.844-8.856c-1-4.154-1.969-11.551,2.758-14.436c1.472-0.9,4.658-1.373,7.038-1.373
		c2.384,0,5.572,0.473,7.046,1.373C41.558,30.69,40.586,38.083,39.583,42.237 M147.078,18.956l-6.405-8.024
		c-1.512-1.724-3.722-2.714-6.063-2.714l-0.335,0.007c-2.409,0.119-4.604,1.301-6.028,3.246L77.739,73.917L62.773,55.692
		c-0.697-0.849-1.813-1.24-2.882-1.029c-8.618,1.715-15.178,4.891-19.508,9.436c-4.195,4.408-6.167,9.809-5.858,16.033l0.981,24.003
		c0.055,1.257,0.895,2.349,2.098,2.722c6.819,2.107,19.321,4.619,40.157,4.619c14.168,0,26.157-1.148,35.645-3.414
		c1.209-0.289,2.113-1.299,2.264-2.531l3.051-24.768c1.666-3.648,18.25-33.304,29.255-52.822
		C149.584,25.018,149.188,21.364,147.078,18.956 M142.771,25.044c-27.673,49.066-29.729,53.525-29.915,54.64l-2.84,23.037
		c-8.709,1.857-19.55,2.799-32.254,2.799c-18.16,0-29.612-1.934-36.394-3.773l-0.895-21.885c-0.228-4.555,1.197-8.477,4.224-11.658
		c3.188-3.35,8.103-5.811,14.625-7.326l16.136,19.645c0.566,0.688,1.413,1.086,2.301,1.086h0.01
		c0.897-0.002,1.743-0.408,2.303-1.105l52.855-65.348c0.038-0.045,0.074-0.092,0.109-0.141c0.36-0.502,0.92-0.81,1.573-0.839
		c0.617,0,1.209,0.253,1.495,0.576l6.402,8.019C143.063,23.407,143.166,24.331,142.771,25.044 M73.702,51.897
		c0.051,0.006,0.106,0.016,0.161,0.022c0.476,0.052,2.895,0.316,3.896,0.316c1.01,0,3.433-0.264,3.905-0.316
		c0.055-0.006,0.109-0.016,0.164-0.026c8.721-1.47,15.419-8.55,17.912-18.941c3.413-14.174,0.743-24.754-7.502-29.793
		c-4.916-3.008-12.923-3.158-14.479-3.158c-1.554,0-9.551,0.15-14.466,3.156c-8.255,5.041-10.922,15.621-7.506,29.795
		C58.287,43.343,64.984,50.427,73.702,51.897 M66.399,8.239c2.563-1.57,7.686-2.283,11.359-2.283c3.677,0,8.805,0.713,11.372,2.287
		c7.91,4.832,6.414,16.68,4.818,23.316c-1.91,7.961-6.781,13.358-13.031,14.451c-1.2,0.131-2.722,0.27-3.159,0.27
		c-0.435,0-1.95-0.139-3.146-0.27c-6.251-1.091-11.121-6.49-13.035-14.455C59.979,24.923,58.476,13.075,66.399,8.239"/>
</g>
</svg>
