<?xml version="1.0" encoding="utf-8"?>
<!-- Generator: Adobe Illustrator 15.1.0, SVG Export Plug-In . SVG Version: 6.00 Build 0)  -->
<!DOCTYPE svg PUBLIC "-//W3C//DTD SVG 1.1//EN" "http://www.w3.org/Graphics/SVG/1.1/DTD/svg11.dtd">
<svg version="1.1" id="Calque_1" xmlns="http://www.w3.org/2000/svg" xmlns:xlink="http://www.w3.org/1999/xlink" x="0px" y="0px"
	 width="206.119px" height="208.07px" viewBox="0 0 206.119 208.07" enable-background="new 0 0 206.119 208.07"
	 xml:space="preserve">
<rect x="29.168" y="97.992" fill="#DF306C" width="14.172" height="14.17"/>
<rect x="57.061" y="97.992" fill="#DF306C" width="14.17" height="14.17"/>
<rect x="84.953" y="97.992" fill="#DF306C" width="14.17" height="14.17"/>
<rect x="29.168" y="129.556" fill="#DF306C" width="14.172" height="14.17"/>
<rect x="57.061" y="129.556" fill="#DF306C" width="14.17" height="14.17"/>
<g>
	<g>
		<defs>
			<rect id="SVGID_1_" y="0" width="206.119" height="208.07"/>
		</defs>
		<clipPath id="SVGID_2_">
			<use xlink:href="#SVGID_1_"  overflow="visible"/>
		</clipPath>
		<path clip-path="url(#SVGID_2_)" fill="#DF306C" d="M164.599,98.431V31.726c0-7.428-6.043-13.471-13.476-13.471h-12.429V15.48
			c0-8.537-6.942-15.48-15.479-15.48c-8.536,0-15.481,6.943-15.481,15.48v2.775h-52.71V15.48C55.022,6.943,48.076,0,39.539,0
			c-8.535,0-15.48,6.943-15.48,15.48v2.775H13.475C6.047,18.256,0,24.299,0,31.726v134.465c0,7.432,6.047,13.475,13.475,13.475
			h88.318c9.588,16.933,27.74,28.404,48.547,28.404c30.757,0,55.779-25.021,55.779-55.781
			C206.119,126.47,188.457,104.753,164.599,98.431 M118.582,15.48c0-2.551,2.08-4.629,4.633-4.629c2.554,0,4.634,2.078,4.634,4.629
			v20.107c0,2.557-2.08,4.633-4.634,4.633c-2.553,0-4.633-2.076-4.633-4.633V15.48z M34.908,15.48c0-2.551,2.078-4.629,4.631-4.629
			c2.551,0,4.631,2.078,4.631,4.629v20.107c0,2.557-2.08,4.633-4.631,4.633c-2.553,0-4.631-2.076-4.631-4.633V15.48z M13.475,29.708
			h10.584v5.879c0,8.537,6.945,15.484,15.48,15.484c8.537,0,15.483-6.947,15.483-15.484v-5.879h52.709v5.879
			c0,8.537,6.945,15.484,15.482,15.484s15.479-6.947,15.479-15.484v-5.879h12.43c1.098,0,2.02,0.926,2.02,2.018v32.828H11.457
			V31.726C11.457,30.635,12.381,29.708,13.475,29.708 M13.475,168.212c-1.094,0-2.018-0.926-2.018-2.021V75.402h141.687v21.254
			c-0.937-0.047-1.857-0.146-2.804-0.146c-30.756,0-55.779,25.024-55.779,55.778c0,5.535,0.836,10.873,2.343,15.924L13.475,168.212
			L13.475,168.212z M150.34,196.615c-24.442,0-44.323-19.885-44.323-44.326c0-24.438,19.881-44.32,44.323-44.32
			c24.44,0,44.32,19.884,44.32,44.32C194.66,176.73,174.78,196.615,150.34,196.615"/>
	</g>
	<g>
		<defs>
			<rect id="SVGID_3_" y="0" width="206.119" height="208.07"/>
		</defs>
		<clipPath id="SVGID_4_">
			<use xlink:href="#SVGID_3_"  overflow="visible"/>
		</clipPath>
		<path clip-path="url(#SVGID_4_)" fill="#DF306C" d="M156.065,117.876H144.61v38.258c0,2.312,1.386,4.394,3.519,5.283L175.801,173
			l4.421-10.567l-24.154-10.109v-34.447H156.065z"/>
	</g>
</g>
</svg>
