<?xml version="1.0" encoding="utf-8"?>
<!-- Generator: Adobe Illustrator 15.1.0, SVG Export Plug-In . SVG Version: 6.00 Build 0)  -->
<!DOCTYPE svg PUBLIC "-//W3C//DTD SVG 1.1//EN" "http://www.w3.org/Graphics/SVG/1.1/DTD/svg11.dtd">
<svg version="1.1" id="Calque_1" xmlns="http://www.w3.org/2000/svg" xmlns:xlink="http://www.w3.org/1999/xlink" x="0px" y="0px"
	 width="83.98px" height="107.109px" viewBox="0 0 83.98 107.109" enable-background="new 0 0 83.98 107.109" xml:space="preserve">
<g>
	<path fill="#DF306C" d="M39.137,83.98H13.285C5.96,83.98,0,78.02,0,70.696V13.284C0,5.96,5.96,0,13.285,0h57.409
		c7.327,0,13.286,5.96,13.286,13.284v57.411c0,4.254-2.06,8.28-5.512,10.773c-1.018,0.734-2.438,0.504-3.173-0.512
		c-0.735-1.019-0.506-2.438,0.512-3.173c2.272-1.643,3.63-4.292,3.63-7.091V13.284c0-4.82-3.922-8.74-8.74-8.74H13.284
		c-4.82,0-8.74,3.92-8.74,8.74v57.409c0,4.82,3.92,8.74,8.74,8.74h25.853c1.255,0,2.272,1.019,2.272,2.272
		S40.391,83.979,39.137,83.98L39.137,83.98z M72.3,107.11c-0.37,0-0.728-0.146-0.99-0.409L60.328,95.714l-3.042,6.46
		c-0.236,0.5-0.75,0.782-1.301,0.803c-0.554-0.013-1.048-0.353-1.26-0.864L43.258,74.368c-0.216-0.523-0.096-1.125,0.304-1.525
		c0.4-0.398,1-0.52,1.524-0.304L72.83,84.003c0.514,0.212,0.853,0.707,0.865,1.262c0.014,0.555-0.303,1.064-0.806,1.3l-6.47,3.03
		l11,10.995c0.546,0.548,0.546,1.435,0,1.979l-4.13,4.131C73.03,106.963,72.673,107.11,72.3,107.11L72.3,107.11z M59.91,91.915
		c0.366,0,0.724,0.146,0.989,0.41l11.4,11.403l2.15-2.149L63.03,90.162c-0.322-0.323-0.468-0.782-0.39-1.232
		c0.08-0.448,0.373-0.83,0.786-1.023l5.398-2.527l-21.69-8.964l8.968,21.697l2.54-5.395c0.194-0.413,0.577-0.705,1.026-0.783
		c0.08-0.015,0.16-0.021,0.24-0.021L59.91,91.915z"/>
</g>
</svg>
