<?xml version="1.0" encoding="utf-8"?>
<!-- Generator: Adobe Illustrator 15.1.0, SVG Export Plug-In . SVG Version: 6.00 Build 0)  -->
<!DOCTYPE svg PUBLIC "-//W3C//DTD SVG 1.1//EN" "http://www.w3.org/Graphics/SVG/1.1/DTD/svg11.dtd">
<svg version="1.1" id="Calque_1" xmlns="http://www.w3.org/2000/svg" xmlns:xlink="http://www.w3.org/1999/xlink" x="0px" y="0px"
	 width="120.401px" height="111.703px" viewBox="0 0 120.401 111.703" enable-background="new 0 0 120.401 111.703"
	 xml:space="preserve">
<g>
	<defs>
		<rect id="SVGID_1_" width="120.401" height="111.703"/>
	</defs>
	<clipPath id="SVGID_2_">
		<use xlink:href="#SVGID_1_"  overflow="visible"/>
	</clipPath>
	<path clip-path="url(#SVGID_2_)" fill="#FFCD05" d="M11.626,55.287c0.505,1.088,1.579,1.725,2.702,1.725
		c0.421,0,0.849-0.09,1.258-0.283l27.942-13.032c-0.389-0.695-0.753-1.41-1.09-2.136c-0.508-1.088-0.94-2.192-1.326-3.307
		l-28.046,13.08C11.574,52.029,10.931,53.801,11.626,55.287 M47.279,49.059L7.192,67.754L5.957,51.045
		c-0.08-1.092,0.815-2.609,1.805-3.072l32.035-14.942c-0.36-2.103-0.515-4.226-0.464-6.355L5.243,42.574
		C2,44.086-0.245,47.918,0.022,51.485l1.239,16.802c0.241,3.266,2.544,5.543,5.597,5.543c0.926,0,1.856-0.215,2.767-0.637
		l42.242-19.702C50.207,52.166,48.669,50.688,47.279,49.059 M40.222,105.553L34.679,89.74c-0.361-1.031,0.105-2.734,0.942-3.436
		L62.66,63.539c-0.895-1.938-1.596-3.947-2.102-6.016L31.786,81.746c-2.74,2.305-3.912,6.59-2.727,9.963l5.568,15.898
		c0.888,2.525,2.95,4.096,5.385,4.096c1.406,0,2.776-0.531,3.969-1.535l35.632-29.99c-1.949-0.85-3.818-1.879-5.575-3.092
		L40.222,105.553z M40.939,92.777c0.588,0.699,1.434,1.059,2.281,1.059c0.678,0,1.357-0.229,1.917-0.697l23.992-20.197
		c-0.585-0.598-1.154-1.213-1.698-1.855c-0.746-0.889-1.438-1.805-2.082-2.75L41.302,88.58C40.044,89.641,39.88,91.52,40.939,92.777
		 M73.867,18.533c0.763-0.357,1.577-0.537,2.41-0.537c1.19,0,2.322,0.383,3.265,1.039c1.516-0.666,3.069-1.238,4.672-1.673
		c-1.911-2.37-4.816-3.834-7.937-3.834c-1.493,0-2.938,0.322-4.302,0.955c-5.089,2.375-7.296,8.445-4.922,13.535
		c0.053,0.111,0.123,0.211,0.178,0.318c1.048-1.267,2.207-2.455,3.455-3.572C70.217,22.262,71.455,19.656,73.867,18.533
		 M59.678,51.574c-0.094-1.605-0.113-3.222,0.028-4.853c0.062-0.672,0.174-1.326,0.271-1.984c-2.854-2.098-5.199-4.897-6.747-8.211
		c-2.425-5.202-2.679-11.038-0.716-16.428c1.965-5.393,5.909-9.697,11.111-12.123c2.869-1.338,5.919-2.016,9.059-2.016
		c7.521,0,14.479,3.985,18.35,10.313c0.644-0.039,1.287-0.086,1.934-0.086c1.65,0,3.278,0.131,4.887,0.365
		c-0.1-0.23-0.177-0.469-0.283-0.701C93.083,6.223,83.31,0,72.684,0c-4.015,0-7.914,0.869-11.578,2.576
		c-6.643,3.1-11.681,8.596-14.187,15.485c-2.509,6.886-2.181,14.338,0.914,20.98C50.367,44.473,54.579,48.819,59.678,51.574
		 M117.043,36.404c1.904-3.334,3.014-7.177,3.014-11.285c0-12.621-10.269-22.886-22.889-22.886c-0.833,0-1.65,0.048-2.461,0.138
		c2.05,1.789,3.873,3.834,5.443,6.096c7.917,1.416,13.949,8.336,13.949,16.652c0,2.045-0.377,4.002-1.043,5.817
		c-5.186-5.586-12.417-8.797-20.09-8.797c-6.447,0-12.717,2.291-17.658,6.451c-5.607,4.719-9.043,11.336-9.667,18.643
		c-0.63,7.302,1.625,14.412,6.344,20.019c5.228,6.207,12.885,9.77,21.004,9.77c6.45,0,12.72-2.291,17.661-6.451
		C120.804,62.023,123.19,47.625,117.043,36.404 M106.813,66.016c-3.867,3.256-8.78,5.051-13.824,5.051
		c-6.36,0-12.354-2.789-16.445-7.652c-3.696-4.389-5.462-9.953-4.97-15.67c0.492-5.72,3.182-10.906,7.569-14.599
		c3.867-3.256,8.775-5.047,13.823-5.047c6.36,0,12.356,2.789,16.448,7.646c0.151,0.184,0.28,0.377,0.425,0.561
		c-1.164,1.312-2.525,2.441-4.037,3.346c-0.254-0.411-0.527-0.805-0.843-1.178c-1.94-2.305-4.78-3.627-7.795-3.627
		c-2.393,0-4.723,0.849-6.557,2.391c-4.294,3.617-4.845,10.052-1.231,14.347c1.939,2.307,4.78,3.627,7.795,3.627
		c2.393,0,4.722-0.849,6.553-2.391c2.081-1.753,3.355-4.208,3.587-6.919c0.01-0.098,0.006-0.194,0.013-0.293
		c2.072-1.026,3.948-2.371,5.607-3.952C116.241,50.014,114.058,59.916,106.813,66.016 M97.168,48.008
		c1.792,0,3.522-0.238,5.192-0.637c-0.348,0.772-0.846,1.469-1.512,2.03c-1.029,0.869-2.333,1.343-3.677,1.343
		c-1.691,0-3.288-0.742-4.379-2.035c-2.029-2.414-1.718-6.025,0.691-8.056c1.03-0.866,2.336-1.34,3.681-1.34
		c1.692,0,3.288,0.742,4.378,2.035c0.021,0.025,0.036,0.055,0.055,0.08c-1.415,0.391-2.895,0.621-4.43,0.621
		c-1.644,0-2.979,1.332-2.979,2.979C94.189,46.672,95.524,48.008,97.168,48.008"/>
</g>
</svg>
