<?xml version="1.0" encoding="utf-8"?>
<!-- Generator: Adobe Illustrator 15.1.0, SVG Export Plug-In . SVG Version: 6.00 Build 0)  -->
<!DOCTYPE svg PUBLIC "-//W3C//DTD SVG 1.1//EN" "http://www.w3.org/Graphics/SVG/1.1/DTD/svg11.dtd">
<svg version="1.1" id="Calque_1" xmlns="http://www.w3.org/2000/svg" xmlns:xlink="http://www.w3.org/1999/xlink" x="0px" y="0px"
	 width="90.07px" height="90.066px" viewBox="0 0 90.07 90.066" enable-background="new 0 0 90.07 90.066" xml:space="preserve">
<g>
	<path fill="#DF306C" d="M37.213,90.067C16.693,90.067,0,73.373,0,52.854c0-20.518,16.693-37.21,37.213-37.21
		c7.444,0,14.63,2.19,20.782,6.34c0.916,0.617,1.157,1.86,0.54,2.775s-1.86,1.156-2.776,0.54c-5.489-3.7-11.901-5.657-18.547-5.657
		C18.9,19.643,4,34.543,4,52.853c0,18.314,14.9,33.214,33.213,33.214c18.313,0,33.21-14.899,33.21-33.213
		c0-7.363-2.357-14.337-6.819-20.165c-0.673-0.877-0.506-2.133,0.37-2.805c0.875-0.67,2.133-0.506,2.805,0.372
		c5.002,6.532,7.646,14.345,7.646,22.597C74.424,73.373,57.731,90.066,37.213,90.067L37.213,90.067z M37.213,74.276
		c-11.81,0-21.42-9.609-21.42-21.422c0-11.81,9.61-21.418,21.42-21.418c3.54,0,7.048,0.882,10.144,2.55
		c0.972,0.524,1.335,1.737,0.812,2.71c-0.523,0.971-1.737,1.336-2.71,0.811c-2.514-1.354-5.365-2.07-8.244-2.07
		c-9.604,0-17.42,7.813-17.42,17.418c0,9.606,7.814,17.422,17.42,17.422c9.604,0,17.418-7.814,17.418-17.422
		c0-3.354-0.956-6.612-2.764-9.42c-0.598-0.93-0.33-2.167,0.6-2.765c0.929-0.599,2.165-0.332,2.765,0.598
		c2.225,3.455,3.399,7.46,3.399,11.586C58.632,64.665,49.022,74.275,37.213,74.276L37.213,74.276z M37.213,59.377
		c-3.597,0-6.522-2.926-6.522-6.523c0-2.924,1.97-5.51,4.786-6.285c0.748-0.204,1.517,0.23,1.722,0.978
		c0.205,0.745-0.232,1.516-0.978,1.72c-1.607,0.444-2.73,1.918-2.73,3.587c0,2.054,1.67,3.724,3.724,3.724
		c1.523,0,2.878-0.913,3.45-2.326c0.29-0.716,1.11-1.059,1.823-0.771c0.717,0.29,1.063,1.106,0.771,1.822
		C42.255,57.778,39.882,59.377,37.213,59.377L37.213,59.377z M37.213,54.254c-0.394,0-0.776-0.166-1.05-0.472
		c-0.383-0.435-0.46-1.061-0.191-1.574l5.886-11.316c0.206-0.396,0.588-0.67,1.028-0.738c0.439-0.067,0.89,0.078,1.202,0.395
		l1.274,1.272l27.137-27.136l-1.455-4.396c-0.166-0.502-0.035-1.057,0.34-1.431L79.83,0.41c0.334-0.333,0.814-0.477,1.275-0.381
		c0.462,0.097,0.845,0.419,1.018,0.857l1.764,4.473l5.396,2.626c0.406,0.198,0.692,0.58,0.768,1.027
		c0.076,0.447-0.069,0.9-0.39,1.222l-7.698,7.696c-0.263,0.263-0.62,0.41-0.989,0.41H77.05c-0.772,0-1.399-0.625-1.399-1.4
		c0-0.774,0.627-1.399,1.399-1.399h3.343l5.897-5.896L82.17,7.64c-0.313-0.154-0.56-0.42-0.688-0.747L80.304,3.9l-6.33,6.328
		l1.454,4.396c0.166,0.502,0.034,1.056-0.341,1.43L46.353,44.79c-0.547,0.547-1.436,0.546-1.98,0l-0.912-0.913l-3.322,6.39
		l7.071-2.64l-0.573-0.574c-0.548-0.547-0.547-1.433,0-1.979c0.548-0.547,1.434-0.547,1.979,0.002l2.11,2.112
		c0.338,0.337,0.479,0.822,0.38,1.287c-0.101,0.465-0.435,0.847-0.88,1.015l-12.523,4.675
		C37.543,54.224,37.377,54.254,37.213,54.254z M78.86,12.606c-0.554,0-1.078-0.33-1.3-0.875L75.3,6.15
		c-0.289-0.716,0.057-1.531,0.771-1.821c0.717-0.288,1.535,0.054,1.825,0.77l2.262,5.58c0.29,0.718-0.056,1.534-0.77,1.824
		C79.213,12.572,79.035,12.606,78.86,12.606L78.86,12.606z"/>
</g>
</svg>
