<?xml version="1.0" encoding="utf-8"?>
<!-- Generator: Adobe Illustrator 15.1.0, SVG Export Plug-In . SVG Version: 6.00 Build 0)  -->
<!DOCTYPE svg PUBLIC "-//W3C//DTD SVG 1.1//EN" "http://www.w3.org/Graphics/SVG/1.1/DTD/svg11.dtd">
<svg version="1.1" id="Calque_1" xmlns="http://www.w3.org/2000/svg" xmlns:xlink="http://www.w3.org/1999/xlink" x="0px" y="0px"
	 width="95.573px" height="111.476px" viewBox="0 0 95.573 111.476" enable-background="new 0 0 95.573 111.476"
	 xml:space="preserve">
<g>
	<defs>
		<rect id="SVGID_1_" width="95.573" height="111.476"/>
	</defs>
	<clipPath id="SVGID_2_">
		<use xlink:href="#SVGID_1_"  overflow="visible"/>
	</clipPath>
	<path clip-path="url(#SVGID_2_)" fill="#FFFFFF" d="M94.955,95.906L82.919,75.061c-1.41,1.471-2.906,2.853-4.485,4.136
		l7.925,13.734l-7.79-2.136c-0.772-0.212-1.593-0.106-2.277,0.292c-0.692,0.398-1.194,1.055-1.394,1.829l-2.043,7.813l-7.949-13.764
		c-1.895,0.713-3.847,1.304-5.848,1.78l12.266,21.242c0.534,0.931,1.525,1.488,2.577,1.488c0.132,0,0.268-0.01,0.398-0.025
		c1.197-0.16,2.179-1.029,2.48-2.198l3.114-11.917l11.884,3.259c0.273,0.074,0.537,0.117,0.817,0.106
		c1.646,0,2.979-1.332,2.979-2.98C95.573,97.039,95.345,96.408,94.955,95.906 M22.687,100.729l-2.043-7.813
		c-0.199-0.774-0.701-1.431-1.39-1.829c-0.457-0.264-0.971-0.398-1.49-0.398c-0.263,0-0.53,0.035-0.788,0.106l-7.794,2.136
		l7.929-13.734c-1.582-1.283-3.078-2.665-4.49-4.136L0.398,96.232c-0.605,1.045-0.515,2.354,0.223,3.312
		c0.736,0.954,1.974,1.368,3.142,1.051l11.884-3.259l3.113,11.917c0.307,1.169,1.287,2.038,2.485,2.198
		c0.131,0.016,0.265,0.025,0.398,0.025c1.056,0,2.043-0.558,2.577-1.488l12.263-21.242c-2.001-0.477-3.95-1.067-5.848-1.78
		L22.687,100.729z M89.088,41.318C89.088,18.535,70.555,0,47.772,0C24.989,0,6.457,18.535,6.457,41.318
		c0,22.783,18.533,41.316,41.316,41.316C70.555,82.634,89.088,64.101,89.088,41.318 M47.772,76.679
		c-19.498,0-35.361-15.863-35.361-35.361S28.274,5.957,47.772,5.957c19.494,0,35.36,15.863,35.36,35.361
		S67.267,76.679,47.772,76.679 M47.772,15.302c-14.348,0-26.022,11.672-26.022,26.016c0,14.344,11.674,26.012,26.022,26.012
		c14.344,0,26.012-11.667,26.012-26.012C73.784,26.974,62.116,15.302,47.772,15.302 M47.772,61.377
		c-11.064,0-20.064-8.999-20.064-20.06c0-11.063,9-20.061,20.064-20.061c11.06,0,20.058,8.998,20.058,20.061
		C67.83,52.379,58.832,61.377,47.772,61.377"/>
</g>
</svg>
