<?xml version="1.0" encoding="utf-8"?>
<!-- Generator: Adobe Illustrator 15.1.0, SVG Export Plug-In . SVG Version: 6.00 Build 0)  -->
<!DOCTYPE svg PUBLIC "-//W3C//DTD SVG 1.1//EN" "http://www.w3.org/Graphics/SVG/1.1/DTD/svg11.dtd">
<svg version="1.1" id="Calque_1" xmlns="http://www.w3.org/2000/svg" xmlns:xlink="http://www.w3.org/1999/xlink" x="0px" y="0px"
	 width="130.648px" height="111.474px" viewBox="0 0 130.648 111.474" enable-background="new 0 0 130.648 111.474"
	 xml:space="preserve">
<g>
	<defs>
		<rect id="SVGID_1_" width="130.648" height="111.474"/>
	</defs>
	<clipPath id="SVGID_2_">
		<use xlink:href="#SVGID_1_"  overflow="visible"/>
	</clipPath>
	<path clip-path="url(#SVGID_2_)" fill="#FFFFFF" d="M129.776,59.747L70.883,0.874C70.317,0.308,69.487,0.033,68.747,0l-46.17,0.47
		c-1.625,0.016-2.934,1.328-2.95,2.946L19.164,49.59c-0.003,0.799,0.309,1.571,0.875,2.133l9.851,9.851
		c-1.696,1.746-3.408,3.312-5.1,4.664l0.004,0.004c-5.405,4.313-10.392,6.381-13.641,6.381c-1.302,0-2.367-0.312-3.162-0.922
		c-3.883-3.013-2.107-14.172,5.598-25.737l0.099-9.986c-0.749,0.879-1.496,1.773-2.219,2.707C-0.453,54.1-3.519,70.314,4.347,76.411
		c1.862,1.44,4.156,2.172,6.806,2.172c5.209,0,11.491-2.935,17.611-7.899c0.005,0.021,0.018,0.035,0.028,0.056
		c1.789-1.461,3.577-3.112,5.331-4.934l44.806,44.798c0.582,0.578,1.345,0.871,2.107,0.871s1.524-0.293,2.107-0.871l46.633-46.646
		c0.56-0.557,0.872-1.313,0.872-2.104C130.648,61.064,130.336,60.307,129.776,59.747 M81.036,104.286L38.051,61.312
		c0.343-0.423,0.691-0.818,1.029-1.257c5.337-6.894,8.882-13.94,10.484-20.18c2.217-0.661,4.256-1.864,5.932-3.549
		c5.498-5.494,5.498-14.442,0-19.946c-2.663-2.664-6.208-4.13-9.978-4.13c-3.764,0-7.306,1.464-9.973,4.13
		c-5.498,5.504-5.498,14.452,0,19.954c2.107,2.103,4.761,3.442,7.64,3.919c-1.57,4.901-4.494,10.575-8.815,16.157
		c-0.18,0.231-0.366,0.44-0.55,0.67l-8.685-8.684l0.418-42l42.003-0.422l55.905,55.878L81.036,104.286z M50.539,32.73
		c-0.016-4.482-1.422-8.136-4.337-10.39c-1.303-1.003-3.172-0.766-4.182,0.529c-1.003,1.303-0.768,3.175,0.535,4.179
		c1.605,1.243,2.245,3.878,1.904,7.354c-1.77-0.23-3.416-1-4.703-2.283c-3.175-3.175-3.175-8.347,0-11.528
		c1.538-1.541,3.584-2.386,5.762-2.386c2.18,0,4.226,0.85,5.767,2.386c3.176,3.182,3.176,8.348-0.003,11.528
		C51.054,32.348,50.793,32.531,50.539,32.73"/>
	<path clip-path="url(#SVGID_2_)" fill="#FFFFFF" d="M61.329,48.014c-0.439,0.437-1.169,0.437-1.593,0.014
		c-0.452-0.452-0.437-1.167,0.002-1.605l8.482-8.483l0.015-0.015c0.232-0.265,0.612-0.409,0.992-0.35
		c0.614,0.116,1.036,0.684,0.936,1.284l-1.812,11.244l6.017-6.017c0.424-0.423,1.138-0.438,1.577,0
		c0.438,0.439,0.438,1.168,0.015,1.592l-8.485,8.483C67.039,54.6,66.308,54.6,65.87,54.16c-0.233-0.232-0.336-0.569-0.308-0.889
		c0-0.06,0-0.117,0.015-0.162l1.812-11.156L61.329,48.014z"/>
	<path clip-path="url(#SVGID_2_)" fill="#FFFFFF" d="M70.036,56.721l8.616-8.615c0.452-0.452,1.153-0.452,1.605,0.001l0.014,0.013
		l0.03,0.031l4.731,4.73c0.422,0.423,0.452,1.153,0,1.606c-0.454,0.453-1.199,0.438-1.621,0.015l-3.958-3.957l-2.672,2.671
		l3.403,3.402c0.437,0.438,0.422,1.184-0.003,1.608c-0.451,0.451-1.181,0.45-1.618,0.014l-3.403-3.403l-2.688,2.688l3.958,3.957
		c0.423,0.423,0.438,1.167-0.015,1.62c-0.438,0.438-1.184,0.423-1.605,0l-4.731-4.731c-0.03-0.03-0.015-0.045-0.015-0.045
		l-0.029,0.002C69.584,57.875,69.598,57.159,70.036,56.721"/>
	<path clip-path="url(#SVGID_2_)" fill="#FFFFFF" d="M100.369,70.643l-12.091,4.935c-0.06,0.028-0.145,0.057-0.205,0.056
		l-0.029,0.002C88,75.65,87.941,75.65,87.885,75.652c-0.029,0.027-0.044,0.012-0.06,0.025c-0.043-0.014-0.117-0.027-0.176-0.027
		l-0.014-0.015c-0.072-0.015-0.145-0.001-0.219-0.044l-0.015-0.014c0,0-0.016-0.016-0.029,0c-0.03-0.031-0.087-0.059-0.145-0.088
		l-0.03-0.031c-0.059-0.029-0.103-0.073-0.161-0.13c-0.044-0.044-0.088-0.087-0.116-0.147c-0.031-0.029-0.044-0.043-0.044-0.043
		c-0.03-0.058-0.043-0.101-0.073-0.132c0-0.027,0-0.027-0.016-0.044c-0.044-0.073-0.044-0.161-0.044-0.217l-0.013-0.015
		c-0.016-0.073-0.016-0.133-0.029-0.177c-0.001-0.029-0.001-0.029,0.014-0.072c0.016-0.043,0.016-0.104,0.028-0.146
		c-0.03-0.03-0.015-0.045-0.015-0.045c0.002-0.057,0.045-0.129,0.074-0.188l2.612-6.439l-6.438,2.614
		c-0.06,0.027-0.146,0.057-0.19,0.07c-0.015-0.014-0.03,0.002-0.03,0.002h-0.175c-0.028,0.027-0.044,0.014-0.057,0.027
		c-0.044-0.012-0.104-0.013-0.162-0.013l-0.028-0.03c-0.074-0.015-0.161-0.015-0.205-0.029l-0.016-0.015c0,0-0.013-0.014-0.028,0
		c-0.059-0.059-0.103-0.072-0.145-0.087l-0.044-0.044c-0.061-0.031-0.104-0.074-0.146-0.116c-0.044-0.045-0.104-0.102-0.132-0.162
		c-0.015-0.015-0.03-0.029-0.044-0.044c-0.03-0.057-0.045-0.101-0.073-0.131c0-0.028,0-0.028-0.016-0.043
		c-0.028-0.06-0.044-0.162-0.044-0.218l-0.015-0.018c-0.014-0.07,0-0.115-0.027-0.175c-0.001-0.028-0.001-0.028,0.012-0.073
		c0-0.059,0.016-0.102,0.016-0.158l0.015-0.017c0-0.058,0.044-0.131,0.058-0.205l4.921-12.104c0.234-0.555,0.892-0.861,1.475-0.598
		c0.57,0.218,0.863,0.89,0.614,1.459l-3.897,9.623l6.365-2.6c0.452-0.189,0.936-0.059,1.257,0.262
		c0.306,0.308,0.437,0.79,0.262,1.258l-2.6,6.365l9.607-3.915c0.586-0.23,1.243,0.046,1.49,0.646
		C101.229,69.75,100.938,70.421,100.369,70.643"/>
</g>
</svg>
