<?xml version="1.0" encoding="utf-8"?>
<!-- Generator: Adobe Illustrator 15.1.0, SVG Export Plug-In . SVG Version: 6.00 Build 0)  -->
<!DOCTYPE svg PUBLIC "-//W3C//DTD SVG 1.1//EN" "http://www.w3.org/Graphics/SVG/1.1/DTD/svg11.dtd">
<svg version="1.1" id="Calque_1" xmlns="http://www.w3.org/2000/svg" xmlns:xlink="http://www.w3.org/1999/xlink" x="0px" y="0px"
	 width="206.119px" height="208.07px" viewBox="0 0 206.119 208.07" enable-background="new 0 0 206.119 208.07"
	 xml:space="preserve">
<rect x="29.168" y="97.992" fill="#FFFFFF" width="14.172" height="14.17"/>
<rect x="57.061" y="97.992" fill="#FFFFFF" width="14.17" height="14.17"/>
<rect x="84.953" y="97.992" fill="#FFFFFF" width="14.17" height="14.17"/>
<rect x="29.168" y="129.556" fill="#FFFFFF" width="14.172" height="14.17"/>
<rect x="57.061" y="129.556" fill="#FFFFFF" width="14.17" height="14.17"/>
<g>
	<defs>
		<rect id="SVGID_1_" width="206.119" height="208.07"/>
	</defs>
	<clipPath id="SVGID_2_">
		<use xlink:href="#SVGID_1_"  overflow="visible"/>
	</clipPath>
	<path clip-path="url(#SVGID_2_)" fill="#FFFFFF" d="M164.598,98.431V31.726c0-7.427-6.043-13.47-13.475-13.47h-12.429V15.48
		c0-8.537-6.942-15.48-15.479-15.48s-15.482,6.943-15.482,15.48v2.776h-52.71V15.48C55.022,6.943,48.076,0,39.539,0
		c-8.535,0-15.48,6.943-15.48,15.48v2.776H13.475C6.047,18.256,0,24.299,0,31.726v134.465c0,7.432,6.047,13.475,13.475,13.475
		h88.318c9.588,16.932,27.74,28.404,48.547,28.404c30.756,0,55.779-25.021,55.779-55.781
		C206.119,126.47,188.457,104.753,164.598,98.431 M118.582,15.48c0-2.551,2.08-4.629,4.633-4.629s4.633,2.078,4.633,4.629v20.108
		c0,2.556-2.08,4.632-4.633,4.632s-4.633-2.076-4.633-4.632V15.48z M34.908,15.48c0-2.551,2.078-4.629,4.631-4.629
		c2.551,0,4.631,2.078,4.631,4.629v20.108c0,2.556-2.08,4.632-4.631,4.632c-2.553,0-4.631-2.076-4.631-4.632V15.48z M13.475,29.708
		h10.584v5.879c0,8.537,6.945,15.484,15.48,15.484c8.537,0,15.483-6.947,15.483-15.484v-5.879h52.71v5.879
		c0,8.537,6.945,15.484,15.482,15.484s15.479-6.947,15.479-15.484v-5.879h12.429c1.098,0,2.02,0.926,2.02,2.017v32.828H11.457
		V31.726C11.457,30.635,12.381,29.708,13.475,29.708 M13.475,168.212c-1.094,0-2.018-0.926-2.018-2.021V75.402h141.686v21.254
		c-0.936-0.047-1.857-0.145-2.803-0.145c-30.756,0-55.779,25.024-55.779,55.778c0,5.535,0.836,10.873,2.343,15.924H13.475z
		 M150.34,196.615c-24.443,0-44.324-19.885-44.324-44.326c0-24.438,19.881-44.32,44.324-44.32c24.441,0,44.32,19.883,44.32,44.32
		C194.66,176.73,174.781,196.615,150.34,196.615"/>
	<path clip-path="url(#SVGID_2_)" fill="#FFFFFF" d="M156.066,117.876h-11.455v38.258c0,2.311,1.385,4.393,3.518,5.283L175.801,173
		l4.42-10.568l-24.154-10.109V117.876z"/>
</g>
</svg>
