<?xml version="1.0" encoding="utf-8"?>
<!-- Generator: Adobe Illustrator 15.1.0, SVG Export Plug-In . SVG Version: 6.00 Build 0)  -->
<!DOCTYPE svg PUBLIC "-//W3C//DTD SVG 1.1//EN" "http://www.w3.org/Graphics/SVG/1.1/DTD/svg11.dtd">
<svg version="1.1" id="Calque_1" xmlns="http://www.w3.org/2000/svg" xmlns:xlink="http://www.w3.org/1999/xlink" x="0px" y="0px"
	 width="93.369px" height="96.866px" viewBox="0 0 93.369 96.866" enable-background="new 0 0 93.369 96.866" xml:space="preserve">
<g>
	<defs>
		<rect id="SVGID_1_" y="0" width="93.369" height="96.866"/>
	</defs>
	<clipPath id="SVGID_2_">
		<use xlink:href="#SVGID_1_"  overflow="visible"/>
	</clipPath>
	<path clip-path="url(#SVGID_2_)" fill="#FFFFFF" d="M75.549,23.858c0.049,0.009,0.083,0.013,0.137,0.018
		c0,0,1.113,0.118,1.492,0.118c0.369,0,1.488-0.118,1.488-0.118c0.053-0.005,0.088-0.009,0.141-0.018
		c3.576-0.601,6.308-3.435,7.304-7.575c1.325-5.5,0.181-9.677-3.235-11.762c-1.971-1.199-4.859-1.292-5.697-1.292
		c-0.843,0-3.74,0.093-5.702,1.294c-3.411,2.083-4.562,6.26-3.239,11.76C69.232,20.423,71.966,23.257,75.549,23.858 M74.123,8.857
		c0.43-0.264,1.721-0.548,3.055-0.548c1.329,0,2.621,0.284,3.055,0.548c1.923,1.176,1.3,4.755,0.939,6.24
		c-0.241,0.996-1.027,3.344-3.151,3.742c-0.185,0.019-0.619,0.067-0.847,0.076c-0.225-0.009-0.659-0.057-0.839-0.076
		c-2.134-0.398-2.919-2.746-3.161-3.742C72.818,13.612,72.195,10.035,74.123,8.857 M90.952,28.889
		c-1.69-1.775-4.188-3.003-7.419-3.646c-0.922-0.184-1.865,0.155-2.457,0.88l-3.898,4.745l-3.898-4.745
		c-0.597-0.725-1.536-1.058-2.458-0.88c-0.741,0.15-1.44,0.329-2.106,0.537c0.859,1.526,1.448,3.172,1.75,4.918l4.75,5.783
		c0.962,1.176,2.959,1.176,3.925,0l4.842-5.898c1.448,0.438,2.572,1.054,3.292,1.811c0.746,0.782,1.066,1.678,1.01,2.848
		l-0.852,20.775l-2.778,4.468c-0.211,0.34-0.334,0.722-0.369,1.118l-2.046,23.065c-0.03,0.678-1.027,2.62-5.061,2.62
		c-4.057,0-5.039-1.944-5.079-2.801l-2.032-22.885c-0.035-0.396-0.162-0.778-0.373-1.115l-0.334-0.539
		c-0.269,0.984-0.658,1.929-1.193,2.799l-2.129,3.427l-0.334,3.735l1.33,14.921c0.118,2.606,2.396,7.536,10.145,7.536
		c7.186,0,10-4.466,10.127-7.36l1.984-22.354l2.611-4.2c0.364-0.601,0.57-1.288,0.598-1.975l0.859-21.007
		C93.48,32.941,92.646,30.665,90.952,28.889 M25.215,62.764c-0.538-0.863-0.935-1.818-1.206-2.816l-0.335,0.537
		c-0.208,0.34-0.336,0.722-0.371,1.118l-2.046,23.065c-0.028,0.678-1.027,2.62-5.061,2.62c-4.056,0-5.034-1.944-5.076-2.801
		L9.085,61.603c-0.036-0.396-0.162-0.778-0.37-1.115l-2.778-4.476L5.086,35.21c-0.057-1.14,0.263-2.034,1.011-2.817
		c0.719-0.756,1.84-1.372,3.291-1.81l4.846,5.898c0.966,1.176,2.959,1.176,3.924,0l4.75-5.782c0.308-1.731,0.902-3.386,1.758-4.916
		c-0.667-0.209-1.367-0.39-2.114-0.54c-0.923-0.184-1.863,0.155-2.458,0.88l-3.898,4.745l-3.897-4.745
		c-0.596-0.725-1.535-1.058-2.457-0.88c-3.235,0.643-5.735,1.867-7.424,3.646c-1.698,1.782-2.53,4.055-2.407,6.548L0.875,56.49
		c0.032,0.715,0.248,1.404,0.611,1.981l2.595,4.182l1.97,22.178c0.123,2.606,2.398,7.536,10.145,7.536c7.19,0,10-4.466,10.13-7.36
		l1.341-15.085l-0.334-3.747L25.215,62.764z M14.568,23.858c0.053,0.009,0.083,0.013,0.136,0.018c0,0,1.115,0.118,1.492,0.118
		c0.369,0,1.493-0.118,1.493-0.118c0.05-0.005,0.085-0.009,0.136-0.018c3.579-0.601,6.312-3.435,7.307-7.575
		c1.323-5.5,0.174-9.677-3.234-11.762c-1.971-1.199-4.863-1.292-5.702-1.292c-0.841,0-3.739,0.093-5.704,1.294
		c-3.408,2.083-4.559,6.26-3.235,11.76C8.251,20.423,10.986,23.257,14.568,23.858 M13.141,8.857
		c0.433-0.264,1.725-0.548,3.055-0.548s2.623,0.284,3.056,0.548c1.922,1.176,1.298,4.755,0.941,6.24
		c-0.239,0.996-1.025,3.344-3.154,3.742c-0.18,0.019-0.619,0.067-0.843,0.076c-0.224-0.009-0.663-0.057-0.843-0.076
		c-2.133-0.398-2.919-2.746-3.158-3.742C11.838,13.612,11.216,10.035,13.141,8.857 M53.68,22.993
		c-0.924-0.182-1.865,0.154-2.458,0.878l-4.537,5.523l-4.536-5.523c-0.593-0.724-1.541-1.056-2.459-0.878
		c-3.526,0.703-6.246,2.034-8.078,3.957c-1.831,1.921-2.727,4.37-2.595,7.067l0.959,23.323c0.029,0.743,0.25,1.464,0.637,2.074
		l2.91,4.694l2.193,24.668c0.131,2.798,2.591,8.089,10.969,8.089c7.781,0,10.818-4.794,10.954-7.906l2.209-24.851l2.914-4.696
		c0.387-0.624,0.604-1.34,0.637-2.072l0.953-23.294c0.131-2.726-0.764-5.177-2.594-7.096C59.924,25.027,57.205,23.696,53.68,22.993
		 M58.328,56.919l-3.116,5.024c-0.211,0.336-0.338,0.719-0.373,1.117l-2.266,25.56c-0.039,0.881-1.172,3.168-5.889,3.168
		c-5.677,0-5.892-3.219-5.901-3.354l-2.257-25.374c-0.032-0.398-0.162-0.778-0.37-1.113l-3.115-5.028L34.09,33.787
		c-0.065-1.327,0.328-2.419,1.197-3.33c0.855-0.901,2.208-1.628,3.946-2.133l5.491,6.684c0.964,1.174,2.959,1.174,3.922,0
		l5.49-6.684c1.738,0.507,3.086,1.232,3.945,2.135c0.869,0.909,1.259,2.003,1.194,3.363L58.328,56.919z M44.924,22.322
		c0.046,0.006,0.09,0.015,0.138,0.02c0.426,0.046,1.207,0.129,1.622,0.129s1.196-0.083,1.622-0.129
		c0.049-0.005,0.092-0.014,0.141-0.02c3.854-0.65,6.8-3.712,7.879-8.186c1.431-5.978,0.207-10.5-3.463-12.743
		C50.743,0.099,47.598,0,46.685,0s-4.057,0.099-6.178,1.394c-3.669,2.242-4.899,6.764-3.463,12.742
		C38.121,18.61,41.066,21.672,44.924,22.322 M43.153,5.729c0.597-0.365,2.146-0.65,3.531-0.65c1.383,0,2.935,0.285,3.531,0.648
		c2.204,1.349,1.68,5.102,1.171,7.219c-0.279,1.16-1.199,3.891-3.725,4.356c-0.202,0.024-0.725,0.082-0.978,0.088
		c-0.252-0.006-0.774-0.064-0.973-0.088c-2.532-0.465-3.45-3.196-3.73-4.354C41.472,10.829,40.949,7.076,43.153,5.729"/>
</g>
</svg>
