<?xml version="1.0" encoding="utf-8"?>
<!-- Generator: Adobe Illustrator 15.1.0, SVG Export Plug-In . SVG Version: 6.00 Build 0)  -->
<!DOCTYPE svg PUBLIC "-//W3C//DTD SVG 1.1//EN" "http://www.w3.org/Graphics/SVG/1.1/DTD/svg11.dtd">
<svg version="1.1" id="Calque_1" xmlns="http://www.w3.org/2000/svg" xmlns:xlink="http://www.w3.org/1999/xlink" x="0px" y="0px"
	 width="102.414px" height="148.757px" viewBox="0 0 102.414 148.757" enable-background="new 0 0 102.414 148.757"
	 xml:space="preserve">
<g>
	<g>
		<defs>
			<rect id="SVGID_1_" width="102.414" height="148.757"/>
		</defs>
		<clipPath id="SVGID_2_">
			<use xlink:href="#SVGID_1_"  overflow="visible"/>
		</clipPath>
		<path clip-path="url(#SVGID_2_)" fill="#DF306C" d="M76.811,116.535l-5.287,6.533c6.927,2.169,10.965,5.186,10.965,7.52
			c0,4.109-12.475,10.326-31.278,10.326c-18.803,0-31.28-6.217-31.28-10.326c0-2.334,4.038-5.351,10.972-7.52l-5.291-6.533
			c-8.037,3.045-13.524,7.754-13.524,14.053c0,11.929,19.683,18.17,39.123,18.17c19.442,0,39.122-6.241,39.122-18.17
			C90.331,124.289,84.848,119.58,76.811,116.535 M51.209,0C22.975,0,0,22.974,0,51.208C0,63.23,4.271,74.927,12.016,84.149
			l34.482,42.61c1.152,1.434,2.874,2.253,4.711,2.253c1.842,0,3.564-0.825,4.704-2.245l34.444-42.564
			c7.774-9.224,12.057-20.943,12.057-32.995C102.414,22.974,79.445,0,51.209,0 M84.428,79.07l-33.219,41.041l-32.962-40.72
			l-0.179-0.231C11.476,71.34,7.846,61.414,7.846,51.209c0-23.909,19.457-43.364,43.363-43.364
			c23.912,0,43.363,19.455,43.363,43.364C94.572,61.416,90.945,71.337,84.428,79.07 M51.209,24.794
			c-14.371,0-26.059,11.687-26.059,26.048c0,14.369,11.688,26.057,26.059,26.057c14.369,0,26.061-11.688,26.061-26.057
			C77.27,36.481,65.578,24.794,51.209,24.794 M51.209,71.019c-11.127,0-20.18-9.049-20.18-20.176
			c0-11.119,9.053-20.165,20.18-20.165c11.125,0,20.18,9.046,20.18,20.165C71.389,61.97,62.334,71.019,51.209,71.019"/>
	</g>
</g>
</svg>
