<?xml version="1.0" encoding="utf-8"?>
<!-- Generator: Adobe Illustrator 15.1.0, SVG Export Plug-In . SVG Version: 6.00 Build 0)  -->
<!DOCTYPE svg PUBLIC "-//W3C//DTD SVG 1.1//EN" "http://www.w3.org/Graphics/SVG/1.1/DTD/svg11.dtd">
<svg version="1.1" id="Calque_1" xmlns="http://www.w3.org/2000/svg" xmlns:xlink="http://www.w3.org/1999/xlink" x="0px" y="0px"
	 width="145.659px" height="137.24px" viewBox="0 0 145.659 137.24" enable-background="new 0 0 145.659 137.24"
	 xml:space="preserve">
<g>
	<defs>
		<rect id="SVGID_1_" width="145.659" height="137.24"/>
	</defs>
	<clipPath id="SVGID_2_">
		<use xlink:href="#SVGID_1_"  overflow="visible"/>
	</clipPath>
	<path clip-path="url(#SVGID_2_)" fill="#FFCD05" d="M66.146,109.809H29.514V54.48l-5.955,4.918v50.41H9.935
		c-2.731,0-3.439,5.957,0,5.957h62.79l-4-5.957h-7.624 M143.578,59.727L72.843,1.296L2.083,59.762
		c-1.268,1.049-1.448,2.924-0.402,4.192c0.591,0.714,1.441,1.082,2.296,1.082c0.672,0,1.342-0.223,1.898-0.682L72.843,9.021
		l66.942,55.299c1.271,1.045,3.148,0.869,4.191-0.403C145.025,62.65,144.846,60.775,143.578,59.727"/>
	<g clip-path="url(#SVGID_2_)">
		<path fill="#FFCD05" d="M74.601,116.766H9.935c-1.986,0-3.321-1.497-3.321-3.725c0-0.988,0.285-1.991,0.782-2.752
			c0.624-0.955,1.526-1.48,2.539-1.48h12.624V58.927l7.955-6.569v56.451h38.744L74.601,116.766z M9.935,110.809
			c-0.779,0-1.321,1.177-1.321,2.232c0,0.519,0.129,1.725,1.321,1.725h60.914l-2.657-3.957H28.514V56.603l-3.955,3.267v50.939H9.935
			z M3.977,66.036c-1.189,0-2.307-0.526-3.066-1.444c-1.395-1.691-1.154-4.203,0.535-5.6L72.843,0l71.373,58.957
			c0.818,0.678,1.325,1.633,1.426,2.689c0.101,1.058-0.217,2.091-0.895,2.91c-0.669,0.815-1.62,1.324-2.676,1.427
			c-1.059,0.107-2.098-0.212-2.922-0.89L72.843,10.319L6.512,65.125C5.8,65.712,4.9,66.036,3.977,66.036z M72.843,2.594L2.72,60.533
			c-0.84,0.695-0.96,1.944-0.267,2.785c0.675,0.815,1.971,0.937,2.786,0.265L72.843,7.724l67.579,55.825
			c0.41,0.337,0.931,0.499,1.454,0.442c0.523-0.051,0.995-0.303,1.327-0.708c0.34-0.41,0.497-0.923,0.447-1.448
			s-0.302-1-0.709-1.337L72.843,2.594z"/>
	</g>
	<g clip-path="url(#SVGID_2_)">
		<path fill="#FFCD05" d="M101.829,117.6c-1.933,0-3.5-1.567-3.5-3.5V82.518c0-1.933,1.567-3.5,3.5-3.5s3.5,1.567,3.5,3.5V114.1
			C105.329,116.032,103.762,117.6,101.829,117.6z"/>
	</g>
	<g clip-path="url(#SVGID_2_)">
		<path fill="#FFCD05" d="M117.62,101.809H86.038c-1.933,0-3.5-1.567-3.5-3.5s1.567-3.5,3.5-3.5h31.582c1.933,0,3.5,1.567,3.5,3.5
			S119.553,101.809,117.62,101.809z"/>
	</g>
	<g clip-path="url(#SVGID_2_)">
		<path fill="#FFCD05" d="M101.777,58.531c-21.702,0-39.354,17.654-39.354,39.354c0,21.701,17.652,39.355,39.354,39.355
			c21.698,0,39.35-17.654,39.35-39.355C141.127,76.186,123.476,58.531,101.777,58.531 M101.777,131.283
			c-18.417,0-33.398-14.982-33.398-33.398c0-18.414,14.981-33.396,33.398-33.396c18.41,0,33.392,14.982,33.392,33.396
			C135.169,116.301,120.188,131.283,101.777,131.283"/>
	</g>
</g>
<g>
	<line fill="none" stroke="#000000" stroke-width="0.3" x1="0.003" y1="-54" x2="0.003" y2="-18"/>
	<line fill="none" stroke="#000000" stroke-width="0.3" x1="-53.997" y1="0" x2="-17.997" y2="0"/>
	<line fill="none" stroke="#000000" stroke-width="0.3" x1="-53.997" y1="137.24" x2="-17.997" y2="137.24"/>
	<line fill="none" stroke="#000000" stroke-width="0.3" x1="0.003" y1="191.24" x2="0.003" y2="155.24"/>
	<line fill="none" stroke="#000000" stroke-width="0.3" x1="145.66" y1="-54" x2="145.66" y2="-18"/>
	<line fill="none" stroke="#000000" stroke-width="0.3" x1="199.66" y1="0" x2="163.66" y2="0"/>
	<line fill="none" stroke="#000000" stroke-width="0.3" x1="199.66" y1="137.24" x2="163.66" y2="137.24"/>
	<line fill="none" stroke="#000000" stroke-width="0.3" x1="145.66" y1="191.24" x2="145.66" y2="155.24"/>
</g>
</svg>
