<?xml version="1.0" encoding="utf-8"?>
<!-- Generator: Adobe Illustrator 15.1.0, SVG Export Plug-In . SVG Version: 6.00 Build 0)  -->
<!DOCTYPE svg PUBLIC "-//W3C//DTD SVG 1.1//EN" "http://www.w3.org/Graphics/SVG/1.1/DTD/svg11.dtd">
<svg version="1.1" id="Calque_1" xmlns="http://www.w3.org/2000/svg" xmlns:xlink="http://www.w3.org/1999/xlink" x="0px" y="0px"
	 width="86.644px" height="95.068px" viewBox="0 0 86.644 95.068" enable-background="new 0 0 86.644 95.068" xml:space="preserve">
<g>
	<defs>
		<rect id="SVGID_1_" y="0" width="86.644" height="95.068"/>
	</defs>
	<clipPath id="SVGID_2_">
		<use xlink:href="#SVGID_1_"  overflow="visible"/>
	</clipPath>
	<path clip-path="url(#SVGID_2_)" fill="#FFCD05" d="M20.347,49.687h4.81v-8.42h8.367v-4.761h-8.367v-8.368h-4.81v8.368h-8.42v4.761
		h8.42V49.687z M16.817,84.035l5.965-5.966l5.926,5.929l3.376-3.371l-5.931-5.933l5.931-5.933l-3.406-3.406l-5.931,5.933
		l-5.965-5.968l-3.377,3.373l5.967,5.968l-5.967,5.966L16.817,84.035z M74.374,76.371H52.776v4.762h21.598V76.371z M74.374,66.65
		H52.776v4.761h21.598V66.65z M74.374,36.53H52.776v4.763h21.598V36.53z M84.105,0H2.542C1.137,0,0.005,1.136,0.005,2.54v18.573
		L0,21.122v71.408c0,1.402,1.137,2.539,2.542,2.539h81.559c1.405,0,2.543-1.137,2.543-2.539V21.137v-0.012V2.54
		C86.644,1.136,85.506,0,84.105,0 M40.78,89.987H5.079V59.365H40.78V89.987z M40.78,54.286H5.079V23.665H40.78V54.286z
		 M81.563,89.987H45.858V59.365h35.705V89.987z M81.563,54.286H45.858V23.665h35.705V54.286z M81.563,18.586H5.083V5.08h76.48
		V18.586z"/>
</g>
</svg>
