<?xml version="1.0" encoding="utf-8"?>
<!-- Generator: Adobe Illustrator 16.0.0, SVG Export Plug-In . SVG Version: 6.00 Build 0)  -->
<!DOCTYPE svg PUBLIC "-//W3C//DTD SVG 1.1//EN" "http://www.w3.org/Graphics/SVG/1.1/DTD/svg11.dtd">
<svg version="1.1" id="Calque_1" xmlns="http://www.w3.org/2000/svg" xmlns:xlink="http://www.w3.org/1999/xlink" x="0px" y="0px"
	 width="75.521px" height="84.109px" viewBox="0 0 75.521 84.109" enable-background="new 0 0 75.521 84.109" xml:space="preserve">
<g>
	<path fill="#E02F6C" d="M71.5,48.873L28.343,82.553c-3.202,2.5-7.84,1.928-10.34-1.273L1.554,60.202
		c-2.496-3.2-1.923-7.836,1.279-10.336l43.156-33.68c3.2-2.498,7.834-1.926,10.332,1.273L72.77,38.537
		C75.27,41.739,74.698,46.375,71.5,48.873z M5.293,53.02c-1.464,1.143-1.727,3.26-0.587,4.722l16.45,21.077
		c1.14,1.462,3.26,1.723,4.724,0.58l43.157-33.68c1.46-1.141,1.72-3.259,0.58-4.721l-16.45-21.08c-1.14-1.46-3.255-1.72-4.717-0.58
		L5.293,53.02L5.293,53.02z M72.69,34.24l-3.243,2.532c-0.87,0.68-2.127,0.523-2.807-0.346c-0.681-0.87-0.524-2.128,0.346-2.808
		l3.243-2.532c1.46-1.14,1.722-3.26,0.58-4.72L54.365,5.29c-1.142-1.463-3.26-1.725-4.722-0.584L6.485,38.39
		c-1.46,1.14-1.72,3.258-0.58,4.72l1.944,2.492c0.68,0.87,0.522,2.128-0.348,2.807c-0.87,0.68-2.127,0.524-2.807-0.347l-1.944-2.49
		c-2.5-3.202-1.928-7.84,1.272-10.336L47.182,1.555C50.382-0.943,55.02-0.37,57.518,2.83l16.446,21.075
		C76.463,27.107,75.891,31.745,72.69,34.24L72.69,34.24z M9.81,47.91c-0.056,0.042-0.12,0.08-0.188,0.106
		c-0.386,0.149-0.82-0.04-0.97-0.427L4.555,37.085c-0.15-0.386,0.04-0.821,0.427-0.97c0.385-0.15,0.819,0.04,0.97,0.425
		l4.096,10.505c0.12,0.316,0.017,0.665-0.239,0.864L9.81,47.91z M12.944,45.464c-0.056,0.043-0.12,0.08-0.19,0.107
		c-0.385,0.15-0.819-0.04-0.97-0.425L7.69,34.64c-0.15-0.387,0.038-0.822,0.425-0.971c0.386-0.149,0.82,0.04,0.97,0.426L13.18,44.6
		C13.304,44.917,13.198,45.266,12.944,45.464z M16.077,43.02c-0.057,0.044-0.12,0.08-0.189,0.107c-0.387,0.15-0.82-0.04-0.971-0.427
		L10.82,32.197c-0.15-0.385,0.04-0.82,0.428-0.97c0.385-0.15,0.82,0.04,0.97,0.426l4.097,10.505
		C16.437,42.473,16.331,42.822,16.077,43.02L16.077,43.02z M19.21,40.575c-0.057,0.044-0.12,0.08-0.189,0.108
		c-0.387,0.149-0.82-0.04-0.971-0.428L13.954,29.75c-0.149-0.385,0.038-0.819,0.426-0.97s0.822,0.04,0.973,0.427l4.094,10.505
		C19.569,40.027,19.463,40.376,19.21,40.575L19.21,40.575z M22.34,38.13c-0.055,0.044-0.119,0.08-0.188,0.108
		c-0.386,0.15-0.82-0.04-0.97-0.427l-4.097-10.504c-0.149-0.387,0.04-0.822,0.428-0.971c0.385-0.149,0.819,0.04,0.97,0.427
		l4.096,10.505C22.701,37.584,22.595,37.933,22.34,38.13L22.34,38.13z M25.474,35.685c-0.057,0.044-0.12,0.08-0.19,0.107
		c-0.385,0.15-0.82-0.04-0.97-0.427L20.22,24.86c-0.15-0.385,0.039-0.82,0.426-0.97c0.386-0.15,0.819,0.04,0.97,0.426l4.095,10.505
		C25.835,35.139,25.731,35.488,25.474,35.685L25.474,35.685z M28.607,33.24c-0.058,0.044-0.12,0.082-0.19,0.108
		c-0.386,0.149-0.819-0.04-0.97-0.427L23.35,22.417c-0.15-0.385,0.04-0.819,0.428-0.97c0.385-0.15,0.82,0.04,0.97,0.425
		l4.097,10.505C28.967,32.693,28.861,33.042,28.607,33.24L28.607,33.24z M31.74,30.796c-0.057,0.044-0.12,0.08-0.19,0.107
		c-0.386,0.15-0.819-0.04-0.97-0.426l-4.095-10.505c-0.15-0.387,0.04-0.822,0.426-0.971c0.387-0.149,0.822,0.04,0.972,0.427
		l4.095,10.505C32.1,30.249,31.995,30.597,31.74,30.796z M34.872,28.35c-0.057,0.045-0.12,0.082-0.189,0.109
		c-0.387,0.15-0.82-0.042-0.971-0.428l-4.096-10.505c-0.15-0.385,0.04-0.82,0.427-0.97c0.387-0.15,0.82,0.04,0.971,0.426
		l4.096,10.505C35.231,27.804,35.125,28.152,34.872,28.35L34.872,28.35z M38.004,25.906c-0.056,0.044-0.12,0.08-0.189,0.108
		c-0.385,0.149-0.82-0.04-0.97-0.428L32.75,15.083c-0.149-0.385,0.038-0.819,0.426-0.97c0.387-0.15,0.82,0.04,0.971,0.426
		l4.095,10.504C38.366,25.358,38.261,25.707,38.004,25.906L38.004,25.906z M41.137,23.46c-0.058,0.045-0.12,0.082-0.19,0.11
		c-0.385,0.15-0.82-0.042-0.97-0.428L35.88,12.637c-0.149-0.387,0.04-0.822,0.429-0.971c0.385-0.149,0.819,0.04,0.97,0.427
		l4.096,10.505C41.497,22.914,41.392,23.263,41.137,23.46L41.137,23.46z M44.27,21.017c-0.057,0.044-0.12,0.08-0.19,0.107
		c-0.385,0.15-0.82-0.04-0.97-0.426l-4.094-10.506c-0.15-0.386,0.04-0.822,0.426-0.97c0.386-0.15,0.82,0.04,0.97,0.425l4.095,10.504
		c0.123,0.316,0.018,0.664-0.236,0.863V21.017z M47.402,18.572c-0.056,0.044-0.12,0.08-0.19,0.107
		c-0.385,0.149-0.819-0.04-0.97-0.428L42.146,7.748c-0.15-0.386,0.04-0.819,0.427-0.97c0.386-0.15,0.82,0.04,0.97,0.425
		l4.097,10.505C47.761,18.025,47.656,18.374,47.402,18.572L47.402,18.572z M50.535,16.127c-0.056,0.044-0.12,0.08-0.189,0.108
		c-0.386,0.15-0.82-0.04-0.971-0.427L45.28,5.303c-0.15-0.386,0.04-0.822,0.426-0.971c0.386-0.149,0.82,0.04,0.97,0.426
		l4.096,10.505C50.896,15.579,50.791,15.928,50.535,16.127L50.535,16.127z M57.54,22.27c-0.053,0.042-0.109,0.076-0.174,0.102
		c-0.382,0.16-0.82-0.02-0.979-0.402L48.42,2.874c-0.16-0.382,0.018-0.821,0.402-0.979c0.382-0.16,0.822,0.02,0.979,0.402
		L57.77,21.39C57.902,21.71,57.8,22.068,57.54,22.27z M64.926,31.938c-0.056,0.044-0.119,0.08-0.188,0.106
		c-0.385,0.15-0.82-0.04-0.972-0.425L52.706,3.378c-0.151-0.386,0.04-0.823,0.425-0.972c0.388-0.15,0.822,0.04,0.974,0.424
		l11.06,28.243C65.288,31.39,65.182,31.74,64.926,31.938L64.926,31.938z M69.354,34.984c-0.061,0.046-0.127,0.085-0.202,0.112
		c-0.39,0.143-0.82-0.057-0.963-0.444l-9.013-24.464c-0.143-0.391,0.057-0.82,0.444-0.963c0.391-0.144,0.82,0.056,0.963,0.443
		l9.01,24.463c0.117,0.314,0.011,0.656-0.239,0.851V34.984z M72.6,32.726c-0.059,0.046-0.125,0.084-0.2,0.111
		c-0.391,0.145-0.82-0.055-0.964-0.443l-5.69-15.397c-0.145-0.388,0.05-0.819,0.443-0.963c0.387-0.144,0.817,0.055,0.962,0.444
		l5.689,15.396C72.958,32.188,72.851,32.53,72.6,32.726L72.6,32.726z"/>
</g>
</svg>
