<?xml version="1.0" encoding="utf-8"?>
<!-- Generator: Adobe Illustrator 15.1.0, SVG Export Plug-In . SVG Version: 6.00 Build 0)  -->
<!DOCTYPE svg PUBLIC "-//W3C//DTD SVG 1.1//EN" "http://www.w3.org/Graphics/SVG/1.1/DTD/svg11.dtd">
<svg version="1.1" id="Calque_1" xmlns="http://www.w3.org/2000/svg" xmlns:xlink="http://www.w3.org/1999/xlink" x="0px" y="0px"
	 width="177.486px" height="161.839px" viewBox="0 0 177.486 161.839" enable-background="new 0 0 177.486 161.839"
	 xml:space="preserve">
<g>
	<defs>
		<rect id="SVGID_1_" width="177.486" height="161.839"/>
	</defs>
	<clipPath id="SVGID_2_">
		<use xlink:href="#SVGID_1_"  overflow="visible"/>
	</clipPath>
	<path clip-path="url(#SVGID_2_)" fill="#FFCD05" d="M169.801,88.435l-5.842-0.945c-1.201-4.674-3.144-9.197-5.806-13.508
		l3.202-8.68c0.968-2.627,0.706-5.307-0.719-7.349c-1.572-2.253-4.223-3.429-7.44-3.071l-11.988,1.333
		c-6.332-4.52-13.523-8.071-21.254-10.654c0-0.091,0.017-0.18,0.017-0.271c0-12.29-7.313-22.877-17.802-27.717
		c2.407-4.82,7.348-8.155,13.093-8.155c8.097,0,14.682,6.588,14.682,14.683c0,4.511-2.029,8.705-5.567,11.513l5.854,7.376
		c5.804-4.605,9.131-11.488,9.131-18.889c0-13.289-10.812-24.101-24.099-24.101c-10.057,0-18.669,6.205-22.272,14.976
		c-1.168-0.135-2.353-0.223-3.557-0.223c-16.836,0-30.536,13.7-30.536,30.537c0,0.074,0.011,0.145,0.011,0.219
		c-24.036,8.1-41.539,25.448-44.826,46.065c-1.817-0.656-4.028-1.76-6.297-3.717c-1.969-1.7-4.941-1.481-6.64,0.488
		c-1.699,1.967-1.482,4.94,0.487,6.64c4.368,3.77,8.736,5.49,11.9,6.274c0.389,5.956,2.704,20.178,15.433,32.652v23.22
		c0,2.601,2.105,4.708,4.705,4.708h15.185c1.739,0,3.336-0.958,4.155-2.493l4.247-7.964c20.076,7.204,44.286,7.206,64.375-0.006
		l4.249,7.97c0.817,1.535,2.416,2.493,4.154,2.493h15.187c2.6,0,4.707-2.107,4.707-4.708v-23.284
		c1.173-1.182,2.289-2.398,3.341-3.644l9.523,1.541c0.489,0.078,0.978,0.118,1.461,0.118c4.512,0,8.308-3.23,9.026-7.682
		l4.088-25.262C178.171,93.945,174.776,89.241,169.801,88.435 M89.433,24.167c11.647,0,21.121,9.476,21.121,21.122
		c0,5.761-2.313,11.156-6.392,15.121c-4.497-0.911-9.458-1.515-14.729-1.515c-5.271,0-10.232,0.604-14.729,1.518
		c-4.079-3.968-6.391-9.363-6.391-15.124C68.313,33.643,77.787,24.167,89.433,24.167 M164.028,122.405l-11.959-1.935
		c-1.716-0.282-3.438,0.413-4.495,1.792c-1.641,2.147-3.52,4.225-5.584,6.175c-0.944,0.891-1.478,2.128-1.478,3.424v20.563h-7.653
		l-4.883-9.158c-1.144-2.142-3.726-3.064-5.962-2.129c-9.939,4.135-21.205,6.323-32.578,6.323c-11.377,0-22.634-2.186-32.562-6.317
		c-2.235-0.936-4.822-0.012-5.963,2.132l-4.882,9.149H38.38v-20.543c0-1.324-0.561-2.591-1.542-3.482
		c-14.289-12.989-13.982-28.853-13.956-29.67c0-19.266,15.356-35.946,37.574-43.847c0.972,2.95,2.408,5.716,4.232,8.238
		c-8.031,2.717-13.133,5.776-13.506,6.006l4.908,8.038c0.144-0.09,14.796-8.85,33.342-8.85c18.549,0,33.205,8.76,33.343,8.843
		l4.915-8.032c-0.376-0.23-5.478-3.291-13.51-6.005c1.803-2.493,3.228-5.221,4.199-8.131c6.84,2.444,13.182,5.713,18.687,9.866
		c0.959,0.724,2.165,1.061,3.354,0.921l11.178-1.241l-3.095,8.401c-0.526,1.428-0.327,3.023,0.528,4.28
		c3.281,4.814,5.428,9.941,6.377,15.243c0.354,1.965,1.91,3.495,3.883,3.815l8.736,1.414L164.028,122.405z"/>
	<path clip-path="url(#SVGID_2_)" fill="#FFCD05" d="M140.564,82.633c-3.225,0-5.839,2.616-5.839,5.841
		c0,3.226,2.614,5.842,5.839,5.842c3.227,0,5.841-2.616,5.841-5.842C146.405,85.249,143.791,82.633,140.564,82.633"/>
</g>
</svg>
