<?xml version="1.0" encoding="utf-8"?>
<!-- Generator: Adobe Illustrator 15.1.0, SVG Export Plug-In . SVG Version: 6.00 Build 0)  -->
<!DOCTYPE svg PUBLIC "-//W3C//DTD SVG 1.1//EN" "http://www.w3.org/Graphics/SVG/1.1/DTD/svg11.dtd">
<svg version="1.1" id="Calque_1" xmlns="http://www.w3.org/2000/svg" xmlns:xlink="http://www.w3.org/1999/xlink" x="0px" y="0px"
	 width="86.184px" height="107.395px" viewBox="0 0 86.184 107.395" enable-background="new 0 0 86.184 107.395"
	 xml:space="preserve">
<g>
	<g>
		<defs>
			<rect id="SVGID_1_" x="0" y="0" width="86.184" height="107.395"/>
		</defs>
		<clipPath id="SVGID_2_">
			<use xlink:href="#SVGID_1_"  overflow="visible"/>
		</clipPath>
		<path clip-path="url(#SVGID_2_)" fill="#DF306C" d="M43.087,52.027c-1,0-3.403-0.265-3.876-0.319
			c-0.052-0.004-0.109-0.011-0.161-0.02c-8.693-1.467-15.367-8.52-17.851-18.871c-3.395-14.12-0.74-24.658,7.473-29.674
			C33.574,0.151,41.54,0,43.087,0c1.551,0,9.524,0.15,14.422,3.143c8.22,5.018,10.874,15.557,7.477,29.674
			c-2.489,10.352-9.158,17.404-17.838,18.867c-0.055,0.013-0.108,0.02-0.164,0.023C46.51,51.762,44.091,52.027,43.087,52.027
			 M39.96,45.797c1.187,0.135,2.695,0.272,3.127,0.272c0.436,0,1.953-0.138,3.146-0.272c6.215-1.084,11.058-6.453,12.961-14.373
			c1.591-6.603,3.079-18.393-4.79-23.199c-2.551-1.559-7.655-2.27-11.316-2.27c-3.776,0-8.743,0.701-11.314,2.27
			c-7.858,4.801-6.37,16.597-4.784,23.199C28.891,39.346,33.738,44.713,39.96,45.797"/>
	</g>
	<g>
		<defs>
			<rect id="SVGID_3_" x="0" y="0" width="86.184" height="107.395"/>
		</defs>
		<clipPath id="SVGID_4_">
			<use xlink:href="#SVGID_3_"  overflow="visible"/>
		</clipPath>
		<path clip-path="url(#SVGID_4_)" fill="#DF306C" d="M43.087,107.395c-20.756,0-33.202-2.504-39.987-4.6
			c-1.203-0.371-2.04-1.459-2.094-2.717L0.031,77.461c-0.306-6.209,1.656-11.592,5.837-15.979c4.313-4.53,10.851-7.689,19.434-9.398
			c0.955-0.189,1.946,0.1,2.646,0.775l15.14,14.564L58.239,52.86c0.701-0.676,1.688-0.965,2.646-0.775
			c8.578,1.709,15.115,4.872,19.43,9.4c4.18,4.392,6.142,9.787,5.839,16.027l-0.98,22.545c-0.055,1.254-0.896,2.342-2.095,2.715
			C76.258,104.881,63.785,107.395,43.087,107.395 M6.864,97.686c6.746,1.83,18.142,3.75,36.224,3.75
			c18.041,0,29.455-1.936,36.227-3.774l0.889-20.422c0.227-4.634-1.148-8.438-4.201-11.652c-3.21-3.365-8.174-5.832-14.772-7.339
			L45.152,73.704c-1.153,1.104-2.975,1.104-4.127,0L24.96,58.248c-6.603,1.507-11.569,3.974-14.78,7.343
			c-3.01,3.158-4.422,7.059-4.198,11.594L6.864,97.686z"/>
	</g>
</g>
</svg>
