<?xml version="1.0" encoding="utf-8"?>
<!-- Generator: Adobe Illustrator 16.0.0, SVG Export Plug-In . SVG Version: 6.00 Build 0)  -->
<!DOCTYPE svg PUBLIC "-//W3C//DTD SVG 1.1//EN" "http://www.w3.org/Graphics/SVG/1.1/DTD/svg11.dtd">
<svg version="1.1" id="Calque_1" xmlns="http://www.w3.org/2000/svg" xmlns:xlink="http://www.w3.org/1999/xlink" x="0px" y="0px"
	 width="206.119px" height="208.071px" viewBox="0 0 206.119 208.071" enable-background="new 0 0 206.119 208.071"
	 xml:space="preserve">
<g>
	<rect x="29.168" y="97.992" fill="#E0306C" width="14.172" height="14.17"/>
	<rect x="57.061" y="97.992" fill="#E0306C" width="14.17" height="14.17"/>
	<rect x="84.953" y="97.992" fill="#E0306C" width="14.17" height="14.17"/>
	<rect x="29.168" y="129.556" fill="#E0306C" width="14.172" height="14.17"/>
	<rect x="57.061" y="129.556" fill="#E0306C" width="14.17" height="14.17"/>
	<path fill="#E0306C" d="M164.598,98.431V31.727c0-7.428-6.043-13.47-13.475-13.47h-12.428V15.48c0-8.537-6.943-15.48-15.48-15.48
		s-15.482,6.943-15.482,15.48v2.776H55.021V15.48C55.021,6.943,48.076,0,39.539,0c-8.535,0-15.48,6.943-15.48,15.48v2.776H13.475
		C6.047,18.256,0,24.299,0,31.727v134.465c0,7.432,6.047,13.475,13.475,13.475h88.318c9.588,16.931,27.74,28.405,48.547,28.405
		c30.756,0,55.779-25.022,55.779-55.781C206.119,126.471,188.457,104.754,164.598,98.431z M118.582,15.48
		c0-2.551,2.08-4.629,4.633-4.629s4.633,2.078,4.633,4.629v20.108c0,2.556-2.08,4.633-4.633,4.633s-4.633-2.077-4.633-4.633V15.48z
		 M34.908,15.48c0-2.551,2.078-4.629,4.631-4.629c2.551,0,4.631,2.078,4.631,4.629v20.108c0,2.556-2.08,4.633-4.631,4.633
		c-2.553,0-4.631-2.077-4.631-4.633V15.48z M13.475,29.709h10.584v5.879c0,8.537,6.945,15.484,15.48,15.484
		c8.537,0,15.482-6.948,15.482-15.484v-5.879h52.711v5.879c0,8.537,6.945,15.484,15.482,15.484s15.48-6.948,15.48-15.484v-5.879
		h12.428c1.098,0,2.02,0.926,2.02,2.018v32.829H11.457V31.727C11.457,30.635,12.381,29.709,13.475,29.709z M13.475,168.213
		c-1.094,0-2.018-0.925-2.018-2.021V75.402h141.686v21.254c-0.936-0.046-1.857-0.145-2.803-0.145
		c-30.756,0-55.779,25.023-55.779,55.778c0,5.535,0.836,10.873,2.344,15.923H13.475z M150.34,196.615
		c-24.443,0-44.324-19.885-44.324-44.326c0-24.438,19.881-44.321,44.324-44.321c24.441,0,44.32,19.883,44.32,44.321
		C194.66,176.73,174.781,196.615,150.34,196.615z"/>
	<path fill="#E0306C" d="M156.066,117.877h-11.455v38.258c0,2.311,1.385,4.393,3.518,5.283L175.801,173l4.42-10.569l-24.154-10.108
		V117.877z"/>
</g>
</svg>
