<?xml version="1.0" encoding="utf-8"?>
<!-- Generator: Adobe Illustrator 15.1.0, SVG Export Plug-In . SVG Version: 6.00 Build 0)  -->
<!DOCTYPE svg PUBLIC "-//W3C//DTD SVG 1.1//EN" "http://www.w3.org/Graphics/SVG/1.1/DTD/svg11.dtd">
<svg version="1.1" id="Calque_1" xmlns="http://www.w3.org/2000/svg" xmlns:xlink="http://www.w3.org/1999/xlink" x="0px" y="0px"
	 width="165.092px" height="165.091px" viewBox="0 0 165.092 165.091" enable-background="new 0 0 165.092 165.091"
	 xml:space="preserve">
<g>
	<defs>
		<rect id="SVGID_1_" width="165.092" height="165.091"/>
	</defs>
	<clipPath id="SVGID_2_">
		<use xlink:href="#SVGID_1_"  overflow="visible"/>
	</clipPath>
	<path clip-path="url(#SVGID_2_)" fill="#FFCD05" d="M156.705,101.363h-15.15V31.922c0-4.623-3.762-8.386-8.388-8.386H63.731V8.387
		C63.731,3.763,59.965,0,55.342,0h-23.42c-4.622,0-8.385,3.763-8.385,8.387v15.149H8.386C3.766,23.536,0,27.299,0,31.922v23.419
		c0,4.626,3.765,8.388,8.386,8.388h15.151v69.437c0,4.626,3.763,8.389,8.385,8.389h69.442v15.147c0,4.626,3.761,8.389,8.385,8.389
		h23.418c4.626,0,8.388-3.763,8.388-8.389v-15.147h15.15c4.625,0,8.387-3.763,8.387-8.389v-23.418
		C165.092,105.125,161.33,101.363,156.705,101.363 M9.818,33.353h13.719v20.56H9.818V33.353z M131.737,33.353v68.01H111.18V62.297
		c0-4.622-3.763-8.384-8.386-8.384H63.731v-20.56H131.737z M63.731,63.729h37.633v37.634H63.731V63.729z M131.737,155.274H111.18
		v-13.719h20.558V155.274z M155.275,131.738H33.354V9.817h20.56v13.719H43.755v9.817h10.158v9.659H43.755v9.816h10.158v9.659h-10.14
		v9.817h10.14v9.659h-10.14v9.817h10.14v9.658h-10.14v9.818h10.131v9.872h9.818v-9.95h9.675v9.95h9.815v-9.95h9.672v9.95h9.817
		v-9.95h9.672v9.95h9.816v-9.95h9.674v9.95h9.817v-9.95h13.594V131.738z"/>
</g>
</svg>
