<?xml version="1.0" encoding="utf-8"?>
<!-- Generator: Adobe Illustrator 15.1.0, SVG Export Plug-In . SVG Version: 6.00 Build 0)  -->
<!DOCTYPE svg PUBLIC "-//W3C//DTD SVG 1.1//EN" "http://www.w3.org/Graphics/SVG/1.1/DTD/svg11.dtd">
<svg version="1.1" id="Calque_1" xmlns="http://www.w3.org/2000/svg" xmlns:xlink="http://www.w3.org/1999/xlink" x="0px" y="0px"
	 width="46.73px" height="43.525px" viewBox="0 0 46.73 43.525" enable-background="new 0 0 46.73 43.525" xml:space="preserve">
<g>
	<defs>
		<rect id="SVGID_1_" width="46.73" height="43.525"/>
	</defs>
	<clipPath id="SVGID_2_">
		<use xlink:href="#SVGID_1_"  overflow="visible"/>
	</clipPath>
	<path clip-path="url(#SVGID_2_)" fill="none" stroke="#FFFFFF" stroke-width="2" d="M3.093,13.904h9.549l4.961-8.591
		c-0.502-0.86-0.542-1.957-0.01-2.88c0.791-1.371,2.544-1.84,3.915-1.049c1.37,0.791,1.839,2.543,1.048,3.914
		c-0.533,0.924-1.503,1.438-2.498,1.432l-4.143,7.174h14.899L26.672,6.73c-0.995,0.005-1.965-0.509-2.498-1.432
		c-0.792-1.371-0.322-3.123,1.048-3.914s3.123-0.322,3.915,1.049c0.533,0.924,0.492,2.02-0.01,2.88l4.96,8.591h9.55
		c1.151,0,2.093,0.946,2.093,2.093v3.936c0,1.147-0.944,2.093-2.093,2.093H3.093C1.945,22.026,1,21.084,1,19.933v-3.936
		C1,14.846,1.942,13.904,3.093,13.904z M35.582,19.327c0.937-0.541,1.258-1.739,0.717-2.676s-1.739-1.258-2.676-0.717
		c-0.938,0.541-1.258,1.739-0.717,2.677C33.447,19.547,34.645,19.868,35.582,19.327z M11.148,19.327
		c-0.937-0.541-1.258-1.739-0.717-2.676c0.541-0.937,1.739-1.258,2.677-0.717c0.936,0.541,1.257,1.739,0.716,2.677
		C13.283,19.547,12.085,19.868,11.148,19.327z M3.339,22.167h40.339l-4.246,18.322c-0.251,1.085-0.922,2.036-2.886,2.036H10.472
		c-1.963,0-2.634-0.945-2.886-2.036L3.339,22.167z M15.922,27.507l0.674,8.543c0.281,3.567-4.385,3.547-4.888,0l-1.212-8.543
		C9.993,23.96,15.641,23.94,15.922,27.507z M31.094,27.507c0.282-3.569,5.93-3.545,5.427,0l-1.212,8.543
		c-0.503,3.545-5.169,3.569-4.888,0L31.094,27.507z M20.795,27.507l0.134,8.543c0.055,3.578,4.719,3.578,4.889,0l0.404-8.543
		C26.391,23.929,20.739,23.929,20.795,27.507z"/>
</g>
</svg>
