<?xml version="1.0" encoding="utf-8"?>
<!-- Generator: Adobe Illustrator 15.1.0, SVG Export Plug-In . SVG Version: 6.00 Build 0)  -->
<!DOCTYPE svg PUBLIC "-//W3C//DTD SVG 1.1//EN" "http://www.w3.org/Graphics/SVG/1.1/DTD/svg11.dtd">
<svg version="1.1" id="Calque_1" xmlns="http://www.w3.org/2000/svg" xmlns:xlink="http://www.w3.org/1999/xlink" x="0px" y="0px"
	 width="136.215px" height="107.581px" viewBox="0 0 136.215 107.581" enable-background="new 0 0 136.215 107.581"
	 xml:space="preserve">
<g>
	<defs>
		<rect id="SVGID_1_" width="136.215" height="107.581"/>
	</defs>
	<clipPath id="SVGID_2_">
		<use xlink:href="#SVGID_1_"  overflow="visible"/>
	</clipPath>
	<path clip-path="url(#SVGID_2_)" fill="#FFFFFF" d="M136.007,60.864L117.67,14.514c-0.508-1.28-1.827-2.055-3.185-1.856
		l-10.416,1.461L73.395,0.265c-0.575-0.263-1.229-0.33-1.846-0.199L46.762,5.359c-0.621,0.138-1.188,0.469-1.609,0.949l-3.313,3.763
		L20.414,12.89c-1.067,0.141-1.975,0.848-2.377,1.85L0.212,59.409c-0.54,1.357-0.02,2.907,1.235,3.657l15.081,9.021l-1.161,1.879
		c-1.074,1.734-1.402,3.781-0.923,5.761c0.476,1.979,1.704,3.649,3.449,4.698l0.653,0.392c1.01,0.606,2.142,0.954,3.309,1.05
		c-1.344,3.381-0.125,7.348,3.082,9.313l2.342,1.445c1.2,0.733,2.577,1.125,3.984,1.125c1.562,0,3.067-0.498,4.329-1.363
		c0.628,1.194,1.538,2.213,2.712,2.93l2.344,1.446c1.202,0.735,2.579,1.122,3.984,1.122c1.419,0,2.754-0.387,3.915-1.073
		c0.624,1.318,1.608,2.435,2.876,3.215l2.346,1.442c1.199,0.736,2.579,1.126,3.988,1.126c2.679,0,5.118-1.353,6.517-3.614
		l0.85-1.359c2.674,2.154,7.454,5.4,12.521,5.912c0.305,0.033,0.604,0.049,0.9,0.049c5.463,0,9.124-5.15,10.752-8.057
		c7.289-0.313,10.771-6.111,11.941-10.393c6.755-3.195,8.412-9.768,8.322-14.258c2.576-1.551,4.271-3.443,5.385-5.219l0.904,1.191
		c0.582,0.756,1.467,1.168,2.367,1.168c0.428,0,0.861-0.094,1.274-0.283l15.014-7.078C135.927,63.983,136.582,62.325,136.007,60.864
		 M20.196,80.601c-0.716-0.431-1.214-1.113-1.413-1.923c-0.192-0.812-0.06-1.65,0.379-2.356l6.805-10.988
		c0.586-0.938,1.646-1.52,2.776-1.52c0.586,0,1.155,0.154,1.644,0.448l0.653,0.396c0.715,0.429,1.22,1.109,1.412,1.92
		c0.196,0.811,0.062,1.645-0.374,2.353l-6.812,10.987c-0.878,1.426-2.969,1.941-4.42,1.072L20.196,80.601z M29.621,92.815
		l-2.348-1.441c-1.483-0.913-1.956-2.867-1.039-4.354l13.894-22.635c0.579-0.94,1.59-1.502,2.709-1.502
		c0.579,0,1.145,0.161,1.641,0.463l2.351,1.448c1.486,0.913,1.952,2.866,1.039,4.353l-13.897,22.63
		C33.093,93.204,31.069,93.702,29.621,92.815 M42.991,96.952l-2.348-1.441c-0.714-0.441-1.216-1.137-1.413-1.959
		c-0.199-0.824-0.064-1.674,0.373-2.387l10.485-17.031c0.582-0.943,1.596-1.505,2.715-1.505c0.579,0,1.148,0.159,1.64,0.466
		l2.356,1.445c0.713,0.439,1.216,1.135,1.409,1.959c0.199,0.822,0.063,1.672-0.374,2.387L47.347,95.913
		C46.469,97.346,44.436,97.839,42.991,96.952 M60.482,100.626c-0.888,1.424-2.924,1.924-4.375,1.033l-2.345-1.441
		c-0.714-0.438-1.213-1.131-1.409-1.953c-0.193-0.821-0.055-1.664,0.385-2.375l7.763-12.518c0.583-0.939,1.602-1.498,2.727-1.498
		c0.581,0,1.153,0.16,1.652,0.463l2.345,1.44c0.711,0.442,1.211,1.135,1.406,1.954c0.192,0.82,0.061,1.666-0.383,2.377
		L60.482,100.626z M78.249,101.607c-3.677-0.374-7.746-3.218-9.959-5.091l3.754-6.053c0.216-0.346,0.373-0.711,0.527-1.076
		l11.604,7.082C82.914,98.751,80.543,101.846,78.249,101.607 M105.735,70.181L63.432,43.737c-1.045-0.654-2.425-0.338-3.079,0.711
		c-0.654,1.045-0.337,2.422,0.711,3.077l42.474,26.55c0.18,1.59,0.407,7.571-5.485,9.932L55.695,57.53
		c-1.049-0.652-2.425-0.33-3.082,0.711c-0.653,1.047-0.335,2.426,0.711,3.08l42.146,26.34c-0.573,2.104-2.361,6.254-7.512,5.885
		l-15.106-9.217c-0.531-1.818-1.673-3.363-3.291-4.357l-2.346-1.439c-1.199-0.737-2.58-1.127-3.987-1.127
		c-0.169,0-0.333,0.02-0.491,0.033c0.009-0.656-0.026-1.32-0.183-1.977c-0.47-1.983-1.689-3.664-3.413-4.729l-2.36-1.447
		c-1.192-0.734-2.572-1.123-3.978-1.123c-0.023,0-0.041,0.004-0.065,0.004c0.244-2.793-1.025-5.617-3.57-7.183l-2.352-1.439
		c-1.197-0.739-2.573-1.13-3.979-1.13c-2.642,0-5.135,1.394-6.515,3.633l-0.634,1.029c-0.604-0.898-1.389-1.674-2.344-2.248
		l-0.654-0.396c-1.19-0.711-2.55-1.087-3.947-1.087c-2.661,0-5.179,1.392-6.569,3.636l-2.509,4.043L6.682,59.26l16.239-40.693
		l12.935-1.702l-5.478,6.226c-0.843,0.955-0.982,2.342-0.349,3.448C33.205,32.076,37.921,35,43.677,35
		c8.109,0,16.065-5.888,18.546-7.895l7.772-0.717c8.396,14.213,26.012,22.123,30.053,23.793l10.841,14.177
		C110.468,65.751,109.226,68.372,105.735,70.181 M119.124,65.315l-14.843-19.403c-0.336-0.443-0.791-0.781-1.304-0.976
		c-0.212-0.079-20.986-8.168-28.676-23.059c-0.515-0.994-1.54-1.613-2.647-1.613c-0.09,0-0.183,0.004-0.273,0.013l-10.632,0.982
		c-0.631,0.054-1.226,0.316-1.702,0.734c-0.077,0.07-8.077,7.051-15.37,7.051c-2.976,0-5.382-1.223-7.323-3.729l12.618-14.334
		l22.863-4.887L102.399,19.9c0.517,0.237,1.087,0.313,1.641,0.237l8.953-1.256l16.443,41.575L119.124,65.315z"/>
</g>
</svg>
