<?xml version="1.0" encoding="utf-8"?>
<!-- Generator: Adobe Illustrator 15.1.0, SVG Export Plug-In . SVG Version: 6.00 Build 0)  -->
<!DOCTYPE svg PUBLIC "-//W3C//DTD SVG 1.1//EN" "http://www.w3.org/Graphics/SVG/1.1/DTD/svg11.dtd">
<svg version="1.1" id="Calque_1" xmlns="http://www.w3.org/2000/svg" xmlns:xlink="http://www.w3.org/1999/xlink" x="0px" y="0px"
	 width="197.725px" height="175.98px" viewBox="0 0 197.725 175.98" enable-background="new 0 0 197.725 175.98"
	 xml:space="preserve">
<g>
	<defs>
		<rect id="SVGID_1_" width="197.725" height="175.98"/>
	</defs>
	<clipPath id="SVGID_2_">
		<use xlink:href="#SVGID_1_"  overflow="visible"/>
	</clipPath>
	<path clip-path="url(#SVGID_2_)" fill="#FFFFFF" d="M193.406,21.383L127.893,9.322c-0.58-0.103-1.174-0.115-1.764-0.023
		L49.965,21.104L7.58,0.529C5.947-0.267,4.018-0.158,2.473,0.803C0.936,1.767,0,3.457,0,5.272v144.561
		c0,2.037,1.17,3.889,3.008,4.764l43.869,20.871c0.961,0.455,2.022,0.609,3.076,0.449l76.911-11.926l64.631,11.902
		c0.316,0.059,0.637,0.086,0.955,0.086c1.225,0,2.422-0.426,3.379-1.221c1.201-1.004,1.896-2.488,1.896-4.055V26.572
		C197.725,24.026,195.91,21.844,193.406,21.383 M187.176,164.371l-59.281-10.918c-0.582-0.105-1.176-0.113-1.766-0.023
		l-76.187,11.814l-39.393-18.74V13.697l36.289,17.619c0.969,0.469,2.055,0.633,3.115,0.469l76.911-11.924l60.313,11.102V164.371z"/>
	<path clip-path="url(#SVGID_2_)" fill="#FFFFFF" d="M58.029,72.342c0-9.139-7.431-16.575-16.568-16.575
		c-9.139,0-16.572,7.436-16.572,16.575c0,9.138,7.433,16.572,16.572,16.572C50.598,88.914,58.029,81.48,58.029,72.342
		 M41.461,78.365c-3.32,0-6.023-2.703-6.023-6.023c0-3.323,2.703-6.024,6.023-6.024s6.018,2.701,6.018,6.024
		C47.479,75.662,44.781,78.365,41.461,78.365"/>
	<path clip-path="url(#SVGID_2_)" fill="#FFFFFF" d="M79.154,117.666c-7.504,0-13.613,6.109-13.613,13.619
		c0,7.507,6.109,13.617,13.613,13.617c7.508,0,13.617-6.11,13.617-13.617C92.771,123.775,86.662,117.666,79.154,117.666
		 M79.154,134.353c-1.689,0-3.063-1.375-3.063-3.068c0-1.691,1.374-3.068,3.063-3.068c1.693,0,3.066,1.377,3.066,3.068
		C82.22,132.978,80.847,134.353,79.154,134.353"/>
	<path clip-path="url(#SVGID_2_)" fill="#FFFFFF" d="M144.01,105.041c11.803,0,21.404-9.6,21.404-21.402
		c0-11.801-9.602-21.403-21.404-21.403c-11.795,0-21.395,9.602-21.395,21.403C122.615,95.441,132.215,105.041,144.01,105.041
		 M144.01,72.789c5.984,0,10.852,4.867,10.852,10.85c0,5.984-4.867,10.851-10.852,10.851c-5.977,0-10.846-4.867-10.846-10.851
		C133.164,77.656,138.033,72.789,144.01,72.789"/>
	<polyline clip-path="url(#SVGID_2_)" fill="#FFFFFF" points="45.313,87.488 67.794,124.491 76.755,118.925 54.274,81.92 	"/>
	<polygon clip-path="url(#SVGID_2_)" fill="#FFFFFF" points="84.089,119.625 90.2,128.224 132.277,97.667 126.167,89.067 	"/>
</g>
</svg>
