<?xml version="1.0" encoding="utf-8"?>
<!-- Generator: Adobe Illustrator 15.1.0, SVG Export Plug-In . SVG Version: 6.00 Build 0)  -->
<!DOCTYPE svg PUBLIC "-//W3C//DTD SVG 1.1//EN" "http://www.w3.org/Graphics/SVG/1.1/DTD/svg11.dtd">
<svg version="1.1" id="Calque_1" xmlns="http://www.w3.org/2000/svg" xmlns:xlink="http://www.w3.org/1999/xlink" x="0px" y="0px"
	 width="74.366px" height="75.155px" viewBox="0 0 74.366 75.155" enable-background="new 0 0 74.366 75.155" xml:space="preserve">
<g>
	<path fill-rule="evenodd" clip-rule="evenodd" fill="#FFFFFF" d="M24.542,74.342c1.623,0.125,3.292,0.178,4.904-0.075
		c3.12-0.484,6.333-0.504,9.496-0.781c6.127-0.534,12.22,0.914,18.355,0.849c2.897-0.029,5.825-0.143,8.674-0.675
		c1.378-0.258,2.784-0.343,4.108-0.816c0.941-0.335,4.192-0.066,4.696-1.05c0.25-0.491,0.387-0.717-0.111-0.969
		c0.29-0.791-0.372-1.731,0.153-2.382c0.484-0.601-0.976-0.721-0.27-1.171c0.241-0.154-0.021-3.231-0.013-3.612
		c0.037-1.686-0.515-3.301-0.294-4.976c0.205-1.571-0.478-3.7,0-5.218c0.556-1.767,0.579-2.174,0.401-3.879
		c-0.166-1.571-0.155-3.549-0.268-5.083c-0.104-1.391,0.652-2.309,0.333-3.587c-0.204-0.816-0.499-1.642-0.51-2.491
		c-0.011-0.757,0.292-2.588,0.17-3.345c-0.222-1.375-0.129-3.893-0.214-3.911c0.292-1.072-0.033-1.337-0.345-2.319
		c-0.43-1.349,0.64-3.048,0.299-4.412c-0.34-1.36-0.142-2.639,0.403-5.441c0.139-0.711-0.463-2.79-0.588-3.444
		c-0.282-1.481,1.02-5.388,0.727-6.867c-0.254-1.28,0.419-5.717-0.382-6.74C72.239-0.64,62.546,2.359,59.46,1.812
		c-1.51-0.267-2.955-0.131-4.48-0.156c-1.704-0.026-3.376-0.36-5.084-0.247c-3.536,0.232-7.039,0.278-10.571,0.549
		c-3.254,0.25-6.244-0.339-9.492,0.041C26.425,2.396,19.528,0.853,16.3,2.036c-2.686,0.981-5.068-1.355-7.068,0.698
		c-0.962,0.99-0.311,11.428-0.45,12.774c-0.083,0.819-0.066,1.643-0.092,2.465c-0.023,0.725,0.14,1.968,0.179,2.584
		C9,22.656,9.17,21.939,9.047,24.035c-0.191,0.018,0.249,2.664,0.073,2.679c-0.092,0.699,0.378,4.11,0.309,4.796
		c-0.064,0.64,1.383-0.83,1.605-0.891c-0.246-0.138,1.301-1.032,1.069-1.16c0.56-0.088,0.37-1.194,0.938-1.161
		c0.988,0.062,1.848-2.31,2.808-2.539c1.265-0.304,1.128-1.993,2.109-2.261c1.259-0.342,0.025-0.7-0.074-1.817
		c-0.041-0.474,0.014-0.321,0.062-0.792c0.052-0.505-0.356-0.917-0.285-1.406c0.159-1.1-0.524-3.204,0.017-4.205
		c0.515-0.953-0.915-6.722-0.226-7.556c0.571-0.691,3.227-0.066,4.15-0.291c1.1-0.267,4.891-0.673,6.02-0.803
		c1.345-0.154,13.059-0.792,15.255,0.185C45.9,8.166,51.134,5.868,54.375,6.65c1.448,0.353,5.631,0.898,6.938,1.637
		c1.216,0.684,1.059,9.298,1.41,10.252c0.352,0.953,0.334,1.971,1.093,2.675c-0.228,0.282-0.27,1.123,0.213,1.4
		c-0.358,0.693-0.088,1.36,0.051,2.109c0.19,1.021,0.094,2.039,0.205,3.081c0.244,2.246,0.449,4.503,1.015,6.697
		c-0.004,0.003-0.091,0.07-0.104,0.08c0.441,4.206,1.336,8.421,1.694,12.646c0.168,2,0.106,3.971,0.494,5.948
		c0.419,2.143-0.123,4.408,0.255,6.587c-0.459,1.078-0.297,6.782-1.499,7.024c-4.338,0.865-8.837,1.076-13.262,1.04
		c-4.702-0.039-8.988,0.822-13.686,0.621c-0.225-0.011-0.127-1.471-0.134-1.765c-0.03-1.046-0.271-2.098-0.245-3.144
		c0.024-0.885,0.168-1.774,0.214-2.658c0.027-0.544-0.242-1.009-0.203-1.548c0.04-0.55,0.265-1.145,0.098-1.696
		c-0.195-0.651-0.051-1.689-0.424-2.252c-0.336-0.505-0.525-0.63-0.633-1.263c-0.079-0.465-0.842-0.509-1.23-0.554
		c-0.549-0.066-1.1-0.117-1.649-0.175c-0.255,0.336-0.719,0.239-1.058,0.146c-0.153-0.042-0.264-0.229-0.442-0.392
		c-0.066,0.037-0.246,0.142-0.474,0.273c-0.143-0.285-4.009,0.138-5.028,0.561c-0.253,0.104-0.513,0.198-0.743,0.286
		c0.836,2.247-0.138,4.655,0.316,6.981c0.459,2.36-0.055,4.532,0.129,6.93c-2.444,0-4.691,0.326-7.134,0.188
		c-0.013-0.002-0.45,0.052-0.49,0.025c-1.09,0.014-1,0.069-1.027-0.657c-0.054-1.493-0.168-3.166-0.055-4.729
		c0.122-1.684,0.446-2.893-0.033-4.101c-0.215-0.541-0.02-1.311-0.014-1.959c0.01-0.769-0.177-1.558-0.224-2.336
		c-0.043-0.736-0.228-1.237-0.267-1.951c-0.036-0.683,0.084-1.619-0.228-2.032c0.132-0.813,0.207-1.665-0.099-2.324
		c-0.217-0.471,0.665-2.196-0.328-2.015c-1.18,0.218-7.599,0.695-8.745,0.506c-0.361-0.06-1.133-1.111-0.634-1.637
		c2.052-2.152,5.674-5.181,7.777-6.977c1.009-0.859,2.593-2.373,3.603-3.252c1.238-1.075,2.359-2.336,3.454-3.552
		c0.963-1.073,2.226-2.446,3.152-3.554c0.443-0.529,1.986-1.484,2.792-1.291c2.533,0.603,5.086,2.025,7.383,3.226
		c2.424,1.267,4.907,3.081,7.262,4.472c2.405,1.418,11.882,7.116,14.254,8.605c2.27,1.426,1.522,2.854,0.528,2.958
		c-1.003,0.105-1.848,0.069-2.176,0.095c-1.16,0.096-2.993,0.143-4.135,0.354c-2.405,0.443-5.044-0.279-7.403,0.356
		c-0.16,0.042,0.116,1.394,0.094,1.675c0,1.373,0.346,3.252,0.475,2.271c-0.264,2.005,0.111,9.445,0.233,10.324
		c0.194,1.402,3.769,0.189,5.908,0.438c1.129,0.13,1.89-1.109,1.739-2.095c-0.223-1.479,0.045-3.381-0.68-4.726
		c-0.231-0.432,0.103-0.993-0.204-1.438c-0.403-0.588-0.403-1.288-0.266-1.96c0.038-0.184,0.227-0.428,0.396-0.478
		c0.993-0.295,1.985-0.341,3.004-0.449c0.447-0.048,0.889-0.147,1.313-0.299c0.616-0.22,1.185-0.03,1.797-0.198
		c2.108-0.577,3.7-2.019,5.709-2.606c0.232-0.066,0.871-0.858,0.865-1.086c-0.092-2.434-2.738-3.93-4.22-5.684
		c-1.98-2.344-4.303-4.274-6.873-5.959c-0.356-0.234-2.246-1.662-2.17-1.979c0.057-0.008,0.711,0.247,1.572-0.076
		c2.168-0.174,3.618,0.319,3.55-1.076c-0.092-1.804,1.385-7.285-1.55-6.817c-0.454,0.072-0.862-0.243-1.318-0.274
		c-0.501-0.034-0.998,0.043-1.499,0.054c-1.336,0.032-2.551,0.633-3.827,0.949c-0.599,0.147-0.559,0.597-0.481,1.066
		c0.173,1.044,0.218,3.585,0.098,4.638c-1.049-0.566-2.096-1.129-3.144-1.693c0.018-0.052-0.148-1.458-0.342-2.143
		c-0.038-0.124,0.091-0.939,0.089-1.069c-0.015-0.697,0.197-0.814-0.379-1.085c-1.643-0.775-4.188-0.503-5.954-0.253
		c-1.537,0.217-0.657,0.949-2.135,0.373c-1.497-0.585-3.217-1.044-4.62-1.817c-1.676-0.923-2.648-1.372-4.59-0.779
		c-3.486,1.067-5.892,4.458-8.458,6.83c-1.178,1.086-2.288,2.274-3.425,3.409c-1.28,1.275-2.63,2.598-3.85,3.922
		c-2.292,2.489-3.669,3.791-6.455,6.344c-1.06,0.972-3.874,3.687-4.498,4.976c-0.221,0.457-0.982,1.363-0.764,2.07
		c0.172,0.557,0.158,0.963,0.467,1.089c0.694,0.281,3.621,0.484,4.378,0.475c0.908-0.014,3.38-0.486,4.294-0.569
		c0.212-0.021,0.547,0.242,0.653,0.459c0.353,0.722-0.352,3.371-0.495,4.153c-0.227,1.25-0.003,2.513,0.131,3.762
		c0.135,1.241,0.1,2.27-0.008,3.517c-0.053,0.61-0.414,11.012,0.123,11.456C10.04,74.624,23.12,74.229,24.542,74.342 M35.643,19.402
		c0.131,0.107,0.254,0.281,0.393,0.313c1.388,0.299,2.669-0.239,4.045-0.185c1.016,0.042,2.566,0.562,3.509-0.058
		c0.243-0.159,0.914-1.154,0.732-1.554c-0.402-0.884-0.081-1.747-0.289-2.586c-0.172-0.688,0.288-2.906-0.221-3.307
		c-0.618-0.49-1.875-0.511-2.669-0.493c-1.841,0.043-3.588-0.1-5.297,0.775c-0.752,0.387,0.245,1.757,0.34,2.347
		c0.106,0.673-0.002,1.919-0.118,2.196C36.523,17.213,36.205,18.503,35.643,19.402 M47.739,19.418
		c0.13,0.103,0.252,0.27,0.393,0.299c1.376,0.289,2.649-0.227,4.017-0.174c1.007,0.038,2.546,0.537,3.484-0.057
		c0.242-0.152,0.905-1.109,0.727-1.49c-0.401-0.85-0.082-1.678-0.288-2.483c-0.169-0.658,0.412-2.136-0.093-2.52
		c-0.613-0.471,1.033-1.12-1.957-1.104c-1.831,0.039-4.312-0.443-6.008,0.398c-0.749,0.371,0.173,2.01,0.265,2.576
		c0.106,0.646-0.069,0.983,0.357,1.481c-0.2,0.151-0.359,0.359-0.475,0.626C48.614,17.318,48.297,18.557,47.739,19.418
		 M23.285,20.227c0.839-0.155,2.705,0.001,3.614-0.04c1.187-0.053,2.127,0.429,3.329,0.036c0.947-0.309,0.977-0.089,1.735-0.999
		c0.302-0.363,0.49-1.451,0.227-1.641c-0.459-0.335,0.175-1.018-0.227-1.239c-0.105-0.627-0.155-1.289-0.328-1.882
		c-0.802-2.746,0.942-2.495-4.378-2.098c-0.901,0.067-3.192-0.177-3.963,0.226c-0.576,0.302,0.125,1.739-0.27,2.444
		c-1.03,1.83-0.336,3.395,0.195,3.481C23.359,18.537,22.572,20.357,23.285,20.227"/>
</g>
</svg>
